<?xml version="1.0" encoding="UTF-8"?><svg id="a" xmlns="http://www.w3.org/2000/svg" viewBox="0 0 125 125"><path d="m54.366,42c2.833,1.5,5.667,3,8.5,4.5" fill="none" stroke="#fff" stroke-linecap="round" stroke-linejoin="round" stroke-width="2"/><path d="m63.366,89c.167,2.167.333,4.333.5,6.5" fill="none" stroke="#fff" stroke-linecap="round" stroke-linejoin="round" stroke-width="2"/><path d="m62.866,77.5c-2.987.123-5.953.292-7.5,3.5" fill="none" stroke="#fff" stroke-linecap="round" stroke-linejoin="round" stroke-width="2"/><path d="m38.866,56.5c1.394,1.785,2.787,3.57,4.697,6.016-1.892,1.269-3.544,2.377-5.197,3.484" fill="none" stroke="#fff" stroke-linecap="round" stroke-linejoin="round" stroke-width="2"/><path d="m45.366,41c1.482,7.425,3.004,9.116,9,10" fill="none" stroke="#fff" stroke-linecap="round" stroke-linejoin="round" stroke-width="2"/><path d="m58.366,67c-1.358.454-2.717.907-3.969,1.325-.641,1.532-1.215,2.904-1.584,3.785-3.17,1.272-5.809,2.331-8.448,3.39" fill="none" stroke="#fff" stroke-linecap="round" stroke-linejoin="round" stroke-width="2"/><path d="m62.866,36.5c-1-.167-1.998-.349-3-.497-2.332-.343-5.474-1.798-6.859-.806-5.744,4.112-14.737,4.545-16.248,13.786-.238,1.458-1.765,2.809-2.918,3.994-3.217,3.305-4.121,7.099-2.995,11.529.927,3.643,1.599,7.351,2.54,10.99,1.356,5.248,4.524,7.85,9.479,8.005" fill="none" stroke="#fff" stroke-linecap="round" stroke-linejoin="round" stroke-width="2"/><path d="m64.866,34.5h7.524c.203,1.49.407,2.986.65,4.772,1.975.925,4.202,1.967,6.751,3.16,1.137-.853,2.578-1.935,4.232-3.177,2.127,2.29,4.211,4.533,7.115,7.66-1.479.706-3.064,1.463-4.259,2.033,1.279,3.069,2.112,5.069,3.115,7.475,1.327.297,2.862.641,4.622,1.036v9.358c-1.573.128-2.927.237-4.402.357-1.081,2.559-2.069,4.898-3.183,7.535,1.1,1.315,2.169,2.592,3.02,3.61-2.178,2.176-4.432,4.428-7.378,7.372-.429-.899-1.186-2.484-1.93-4.043-3.221,1.462-5.394,2.448-7.877,3.575v5.776h-8" fill="none" stroke="#fff" stroke-linecap="round" stroke-linejoin="round" stroke-width="2"/><path d="m47.866,49c-1.333,1.5-2.667,3-4,4.5" fill="none" stroke="#fff" stroke-linecap="round" stroke-linejoin="round" stroke-width="2"/><path d="m40.866,72c1.219,1.463,2.438,2.926,3.632,4.358-1.635,3.817-2.153,7.556.907,10.603,5.297,5.276,11.332,4.492,18.462.57V29.5" fill="none" stroke="#fff" stroke-linecap="round" stroke-linejoin="round" stroke-width="2"/><path d="m62.366,58.5c-4.281-1.226-8.246-1.488-11.55,2.458-1.914,2.286-4.654,2.524-7.45,1.542" fill="none" stroke="#fff" stroke-linecap="round" stroke-linejoin="round" stroke-width="2"/><path d="m64.866,68.5c6.963-.212,9.279-2.014,9-7-.241-4.302-2.491-5.801-9-6" fill="none" stroke="#fff" stroke-linecap="round" stroke-linejoin="round" stroke-width="2"/><path d="m68.866,45.5c.833.5,1.607,1.207,2.509,1.467,7.441,2.142,12.264,8.056,11.925,15.53-.325,7.157-5.186,12.659-11.925,14.537-.903.252-1.676.966-2.51,1.466" fill="none" stroke="#fff" stroke-linecap="round" stroke-linejoin="round" stroke-width="2"/></svg>