<?xml version="1.0" encoding="UTF-8"?><svg id="a" xmlns="http://www.w3.org/2000/svg" viewBox="0 0 125 125"><path d="m97.06,79.004c0-12.5.06-25-.035-37.5-.03-3.984-2.482-6.449-6.465-6.466-18.333-.078-36.667-.077-55-.004-4.6.018-6.462,2.099-6.483,6.97-.052,12.333-.017,24.667-.017,37" fill="none" stroke="#fff" stroke-linecap="round" stroke-linejoin="round" stroke-width="2"/><path d="m29.06,79.504h-6c-1.003,6.279,2.332,10.475,8.5,10.486,20.5.037,41,.049,61.5-.008,6.04-.017,9.549-4.229,9-10.478H29.56" fill="none" stroke="#fff" stroke-linecap="round" stroke-linejoin="round" stroke-width="2"/><path d="m74.56,75.504c-.21-6.897-4.813-11.5-11.5-11.5s-11.239,4.563-11.5,11.5" fill="none" stroke="#fff" stroke-linecap="round" stroke-linejoin="round" stroke-width="2"/><path d="m91.56,74.004v-33.75h-57v35.25" fill="none" stroke="#fff" stroke-linecap="round" stroke-linejoin="round" stroke-width="2"/><path d="m86.56,75.504v-3.25h-5.163c-.864-1.996-1.663-3.843-2.57-5.937,1.041-1.447,2.094-2.91,3.133-4.354-1.754-1.594-3.591-3.262-5.604-5.091-.668.592-1.912,1.696-3.417,3.031-1.993-.813-3.943-1.608-5.879-2.398v-5.25h-8.171c.24,1.764.444,3.26.686,5.037-1.912.793-3.914,1.622-6.111,2.533-1.525-1.155-2.96-2.243-3.789-2.871-1.924,1.748-3.76,3.416-6.505,5.91,1.598.763,3.183,1.52,4.346,2.075-1.168,2.882-1.9,4.689-2.675,6.603-1.466.242-3.149.521-5.395.892.23,1.149.423,2.11.615,3.072" fill="none" stroke="#fff" stroke-linecap="round" stroke-linejoin="round" stroke-width="2"/><path d="m72.06,85.004h-14" fill="none" stroke="#fff" stroke-linecap="round" stroke-linejoin="round" stroke-width="2"/><path d="m68.56,75.504c-3.32-6.325-5.597-6.65-10.5-1.5" fill="none" stroke="#fff" stroke-linecap="round" stroke-linejoin="round" stroke-width="2"/></svg>