<?xml version="1.0" encoding="UTF-8"?><svg id="a" xmlns="http://www.w3.org/2000/svg" viewBox="0 0 125 125"><path d="m69.832,42.815c2.777-2.546,5.554-5.092,8.657-7.937.879.351,2.346.938,3.813,1.525.389.354.778.708,1.167,1.063,1.232-1.604,2.464-3.207,3.453-4.493-.291-4.119-1.806-6.442-5.574-5.588-3.784.857-4.041,3.73-3.016,6.931" fill="none" stroke="#fff" stroke-linecap="round" stroke-linejoin="round" stroke-width="2"/><path d="m84.832,44.315c1.238-1.417,2.477-2.835,3.718-4.256,1.826.365,3.333.666,4.407.881,2.632,2.632,1.82,5.233-2.839,8.945-1.781-1.482-3.703-3.081-5.625-4.681-2.687-1.006-5.285-1.417-6.764,2.573-1.8,4.859-5.872,6.287-10.904,5.588-2.126-.296-4.327-.069-6.493-.045-5.533.059-8.774,2.768-9,7.496-.224,4.686,2.853,7.587,8.5,7.993.663.048,1.333.007,2,.007" fill="none" stroke="#fff" stroke-linecap="round" stroke-linejoin="round" stroke-width="2"/><path d="m73.832,61.315c2.833,0,5.667-.018,8.5.004,4.022.032,8.418-1.081,10.962,5.253,2.262-2.585,4.315-3.963,4.893-5.803,1.047-3.338-1.61-4.408-5.195-5.287-1.275,1.634-2.717,3.483-4.16,5.333" fill="none" stroke="#fff" stroke-linecap="round" stroke-linejoin="round" stroke-width="2"/><path d="m84.832,77.315c1.543,1.78,3.086,3.561,5.002,5.771,1.749-1.855,3.621-3.113,4.319-4.843.45-1.117-.415-3.728-1.418-4.238-1.457-.741-3.751-.674-5.36-.074-2.307.86-4.318,2.511-5.938,3.507-3.441-3.448-6.023-6.035-8.605-8.622" fill="none" stroke="#fff" stroke-linecap="round" stroke-linejoin="round" stroke-width="2"/><path d="m63.332,33.815c-.153-1.334-.306-2.667-.488-4.25h-9.762v5.195c-2.958,1.312-5.677,2.519-8.523,3.781-1.06-1.06-2.393-2.393-4.037-4.037-2.371,2.793-4.743,5.588-7.124,8.393.901.773,2.428,2.085,3.424,2.939-2.211,5.035-3.554,10.191-10.24,8.755v11.331c2.071.19,3.904.359,6.109.561,1.114,2.599,2.345,5.472,3.729,8.701-1.041,1.449-2.228,3.102-3.579,4.983,2.289,2.504,4.754,5.202,8.083,8.844,1.346-2.255,2.471-4.14,3.345-5.605,3.379,1.62,5.731,2.748,8.563,4.106v6.051h10.5v-6.75" fill="none" stroke="#fff" stroke-linecap="round" stroke-linejoin="round" stroke-width="2"/><path d="m57.832,42.815c-6.833.882-12.107,4.218-14.948,10.524-4.723,10.482.17,20.03,10.954,23.958,1.284.468,2.76,1.184,3.977.939,9.328-1.874,14.756,2.838,18.099,10.773,4.353-.95,7.748-.746,8.488,4.645-1.25,3.013-3.629,5.287-6.993,3.514-3.449-1.819-2.551-5.052-.578-7.853" fill="none" stroke="#fff" stroke-linecap="round" stroke-linejoin="round" stroke-width="2"/></svg>