<?xml version="1.0" encoding="UTF-8"?><svg id="a" xmlns="http://www.w3.org/2000/svg" viewBox="0 0 125 125"><path d="m70.283,84.961h-16" fill="none" stroke="#fff" stroke-linecap="round" stroke-linejoin="round" stroke-width="2"/><path d="m70.783,80.961c.295-4.474,2.938-7.553,5.975-10.525,6.437-6.3,9.985-13.748,8.003-22.97-2.653-12.343-11.776-19.361-24.476-18.463-11.649.824-20.273,10.5-20.585,21.956-.203,7.451,2.344,13.427,7.571,18.513,3.271,3.182,6.655,6.349,6.511,11.489" fill="none" stroke="#fff" stroke-linecap="round" stroke-linejoin="round" stroke-width="2"/><path d="m71.283,90.461h-18" fill="none" stroke="#fff" stroke-linecap="round" stroke-linejoin="round" stroke-width="2"/><path d="m62.283,46.961c-2.188,1.047-5.243,1.827-4.343,4.955.567,1.969,2.663,3.498,3.998,5.132,6.533-4.536,6.533-5.915.845-10.087" fill="none" stroke="#fff" stroke-linecap="round" stroke-linejoin="round" stroke-width="2"/><path d="m51.283,45.961c-1.482,1.224-2.963,2.449-4.445,3.673-.268-.224-.537-.449-.805-.673v5.498c2.078.596,3.792,1.087,6.012,1.724-1.303,2.186-2.065,3.463-2.933,4.919,1.022,1.309,2.047,2.622,3.216,4.119,1.497-.855,2.916-1.666,4.907-2.804.961,1.827,1.795,3.414,2.783,5.294h5.15c.516-1.51,1.095-3.205,1.864-5.459,1.932,1.093,3.363,1.904,4.828,2.732,1.279-1.49,2.59-3.017,4.29-4.998-.622-.44-1.893-1.34-4.15-2.938,2.633-1.149,4.338-1.893,6.555-2.86.063-1.211.167-3.209.287-5.52-1.88-.153-3.234-.262-5.608-.455.743-2.342,1.317-4.152,2.238-7.055-.696-.689-2.204-2.181-3.358-3.323-2.118,1.303-3.578,2.202-5.548,3.414-.503-2.243-.847-3.778-1.306-5.829-1.994.103-3.992.207-5.841.303-.262,1.578-.481,2.902-.846,5.104-1.927-.808-3.724-1.562-6.332-2.656-.636.777-1.836,2.243-3.206,3.916.762,1.144,1.506,2.259,2.249,3.374" fill="none" stroke="#fff" stroke-linecap="round" stroke-linejoin="round" stroke-width="2"/><path d="m69.283,95.461c-.333,0-.692-.082-.996.013-2.597.813-9.091.78-11.517.028-.409-.127-.987.292-1.487.459" fill="none" stroke="#fff" stroke-linecap="round" stroke-linejoin="round" stroke-width="2"/></svg>