<?xml version="1.0" encoding="UTF-8"?><svg id="a" xmlns="http://www.w3.org/2000/svg" viewBox="0 0 125 125"><path d="m57.713,91.322c-1.14,8.425-.234,9.5,8,9.5,7.5,0,15.012-.261,22.496.091,5.052.238,7.179-2.524,7.075-7.093-.353-15.496-.436-30.998-.559-46.498-.069-8.679-.333-9-9.012-9-6.333,0-12.667,0-19,0-8.68,0-8.939.321-9.014,9-.111,12.834-.339,25.667-.461,38.5-.016,1.665.308,3.333.475,5" fill="none" stroke="#fff" stroke-linecap="round" stroke-linejoin="round" stroke-width="2"/><path d="m80.713,95.822h-8" fill="none" stroke="#fff" stroke-linecap="round" stroke-linejoin="round" stroke-width="2"/><path d="m94.213,47.322h-36" fill="none" stroke="#fff" stroke-linecap="round" stroke-linejoin="round" stroke-width="2"/><path d="m94.213,90.822h-36" fill="none" stroke="#fff" stroke-linecap="round" stroke-linejoin="round" stroke-width="2"/><path d="m72.213,50.322c.943,1.65,1.886,3.3,3.388,5.927,2.213-2.132,3.662-3.53,5.112-4.927" fill="none" stroke="#fff" stroke-linecap="round" stroke-linejoin="round" stroke-width="2"/><path d="m55.713,35.822c-8.589,0-11.567,1.985-13.5,9-1.82,6.604,1.786,12.501,8.49,14.044.742.171,1.344.956,2.01,1.456" fill="none" stroke="#fff" stroke-linecap="round" stroke-linejoin="round" stroke-width="2"/><path d="m90.713,53.822c-1.27.642-2.541,1.284-4.195,2.12,1.464,1.603,2.426,2.657,3.439,3.767-1.711,1.468-3.238,2.78-4.923,4.226-.635-.474-1.893-1.411-3.659-2.729-1.093,1.865-2.004,3.419-3.146,5.366h-4.354c-.922-1.813-1.746-3.432-2.775-5.456-1.709,1.339-2.836,2.223-4.012,3.145-1.407-1.407-2.907-2.907-4.587-4.587.982-1.076,1.944-2.129,3.408-3.733-1.654-.836-2.924-1.478-4.195-2.12" fill="none" stroke="#fff" stroke-linecap="round" stroke-linejoin="round" stroke-width="2"/><path d="m72.713,32.822c-1.719-1.44-3.438-2.881-5.46-4.575-1.156.927-2.558,2.051-4.172,3.344-1.793-.698-3.61-1.405-5.868-2.284v-5.236h-7.75v4.863c-2.016,1.016-3.879,1.955-5.905,2.976-1.081-1.342-2.199-2.729-3.112-3.861-2.169,2.169-3.835,3.835-5.774,5.774.893,1.114,2.017,2.516,3.024,3.772-1.46,3.857-3.162,7.21-7.983,6.676v7.3h5.125c.776,1.551,1.676,3.353,2.74,5.479-1.764.988-3.48,1.949-5.196,2.91.62.278,1.24.555,1.86.833,1.669,1.837,3.337,3.673,5.831,6.418.763-1.598,1.52-3.183,2.144-4.491,2.872,1.153,4.677,1.877,6.997,2.808v5.292h3.5" fill="none" stroke="#fff" stroke-linecap="round" stroke-linejoin="round" stroke-width="2"/><path d="m52.213,41.322c-.333.5-.593,1.074-1.011,1.489-4.6,4.555-4.425,6.368,1.011,10.011" fill="none" stroke="#fff" stroke-linecap="round" stroke-linejoin="round" stroke-width="2"/></svg>