<?xml version="1.0" encoding="UTF-8"?><svg id="a" xmlns="http://www.w3.org/2000/svg" viewBox="0 0 125 125"><path d="m95.901,33.971c0,1-.3,2.122.05,2.98,2.017,4.948,1.372,8.409-2.549,12.52-4.133,4.333-7.914,5.173-14.561,2.587-3.439,3.744-7.189,7.829-10.939,11.913" fill="none" stroke="#fff" stroke-linecap="round" stroke-linejoin="round" stroke-width="2"/><path d="m95.401,36.971c-2.442,2.036-4.885,4.072-7.898,6.584-1.994-1.809-4.443-4.031-7.966-7.227,3.373-2.502,6.353-4.712,9.851-7.307-5.537-2.699-9.3-2.697-13.014.419-5.049,4.234-8.086,8.881-4.435,15.495-3.871,3.871-7.704,7.704-11.538,11.538" fill="none" stroke="#fff" stroke-linecap="round" stroke-linejoin="round" stroke-width="2"/><path d="m96.901,92.471c-2.667-3.333-5.208-6.778-8.037-9.967-2.578-2.907-5.468-5.538-7.963-8.032v-5.001c-6.803-2.268-14.407,5.043-12.98,12.605,4.868-1.123,7.974,1.828,10.969,4.906,3.617,3.718,7.153,7.514,10.412,10.948,4.293.28,6.215-1.962,7.599-4.958" fill="none" stroke="#fff" stroke-linecap="round" stroke-linejoin="round" stroke-width="2"/><path d="m58.401,65.471c-6.833,6.833-13.667,13.667-20.5,20.5" fill="none" stroke="#fff" stroke-linecap="round" stroke-linejoin="round" stroke-width="2"/><path d="m62.401,69.471c-9.13,8.883-18.26,17.766-27.964,27.208-2.435-2.9-4.26-5.073-6.502-7.742,9.46-9.46,18.463-18.463,27.466-27.466" fill="none" stroke="#fff" stroke-linecap="round" stroke-linejoin="round" stroke-width="2"/><path d="m68.401,73.471c-7.667-7.833-15.245-15.757-23.07-23.429-1.688-1.655-4.484-2.13-6.371-3.645-2.091-1.679-3.88-3.81-5.51-5.964-1.296-1.712-2.156-3.755-3.263-5.749.881-.881,2.048-2.048,3.395-3.395,2.237,1.372,4.701,2.562,6.772,4.238,2.242,1.815,5.275,2.682,5.389,6.933.059,2.219,3.577,4.425,5.673,6.494,6.961,6.873,13.985,13.682,20.985,20.515" fill="none" stroke="#fff" stroke-linecap="round" stroke-linejoin="round" stroke-width="2"/><path d="m74.401,49.971c-3.5,3.333-7,6.667-10.5,10" fill="none" stroke="#fff" stroke-linecap="round" stroke-linejoin="round" stroke-width="2"/><path d="m77.401,78.471c4.667,4.667,9.333,9.333,14,14" fill="none" stroke="#fff" stroke-linecap="round" stroke-linejoin="round" stroke-width="2"/></svg>