<?xml version="1.0" encoding="UTF-8"?><svg id="a" xmlns="http://www.w3.org/2000/svg" viewBox="0 0 125 125"><path d="m79.431,65.818c4.102,7.11,8.204,14.22,12.536,21.73-1.733,2.158-3.385,4.214-5.036,6.27" fill="none" stroke="#fff" stroke-linecap="round" stroke-linejoin="round" stroke-width="2"/><path d="m65.931,40.318c.463-2.308.926-4.616,1.371-6.834-1.473-1.711-2.708-3.144-4.567-5.303-.972,1.783-1.969,3.612-2.967,5.441l-1.255-.728c.473,2.474.946,4.949,1.418,7.423" fill="none" stroke="#fff" stroke-linecap="round" stroke-linejoin="round" stroke-width="2"/><path d="m66.931,58.318c1.833,3.167,3.667,6.333,5.5,9.5" fill="none" stroke="#fff" stroke-linecap="round" stroke-linejoin="round" stroke-width="2"/><path d="m57.931,58.318c-3.333,5.5-6.667,11-10,16.5" fill="none" stroke="#fff" stroke-linecap="round" stroke-linejoin="round" stroke-width="2"/><path d="m38.431,54.818c2.333,3,4.667,6,7,9" fill="none" stroke="#fff" stroke-linecap="round" stroke-linejoin="round" stroke-width="2"/><path d="m64.931,45.818c-3.015-1.603-4.616.188-6.082,2.388.207,1.286.394,2.449.582,3.612" fill="none" stroke="#fff" stroke-linecap="round" stroke-linejoin="round" stroke-width="2"/><path d="m45.931,65.318c-1,1.833-2,3.667-3,5.5" fill="none" stroke="#fff" stroke-linecap="round" stroke-linejoin="round" stroke-width="2"/><path d="m62.431,63.818c.167,4.333.333,8.667.5,13" fill="none" stroke="#fff" stroke-linecap="round" stroke-linejoin="round" stroke-width="2"/><path d="m40.431,89.818c.167,2,.333,4,.5,6" fill="none" stroke="#fff" stroke-linecap="round" stroke-linejoin="round" stroke-width="2"/><path d="m42.431,87.818c4.387-3.043,7.728-6.546,5.144-12.885-1.445-1.156-3.295-2.635-5.145-4.115-9.983,1.96-10.045,6.004-8.901,12.565,2.475,1.802,3.98,5.684,8.401,5.434" fill="none" stroke="#fff" stroke-linecap="round" stroke-linejoin="round" stroke-width="2"/><path d="m71.431,53.318c-3.283,4.534-7.523,6.303-13.465,4.166-.938-1.106-2.237-2.636-3.535-4.166" fill="none" stroke="#fff" stroke-linecap="round" stroke-linejoin="round" stroke-width="2"/><path d="m72.431,68.818c4.833,8.667,9.681,17.325,14.464,26.02.282.512.036,1.313.036,1.98" fill="none" stroke="#fff" stroke-linecap="round" stroke-linejoin="round" stroke-width="2"/><path d="m79.431,64.318c-2.333-3.833-4.744-7.623-6.945-11.531-.539-.957-.49-2.298-.538-3.47-.195-4.814-3.104-8.336-7.518-8.999-4.713-.708-10.027,1.924-10.275,6.512-.391,7.214-6.002,11.451-7.905,17.748,14.796,12.046,35.909,3.554,41.181-9.76" fill="none" stroke="#fff" stroke-linecap="round" stroke-linejoin="round" stroke-width="2"/></svg>