<?xml version="1.0" encoding="UTF-8"?><svg id="a" xmlns="http://www.w3.org/2000/svg" viewBox="0 0 125 125"><path d="m63.267,39.817c2,1.667,4.565,2.978,5.882,5.074,2.719,4.328.458,7.897-2.882,10.926" fill="none" stroke="#fff" stroke-linecap="round" stroke-linejoin="round" stroke-width="2"/><path d="m79.767,66.817c-2.667,1.667-5.333,3.333-8,5" fill="none" stroke="#fff" stroke-linecap="round" stroke-linejoin="round" stroke-width="2"/><path d="m45.767,67.317c7.713,5.958,16.198,7.544,25.5,4.5" fill="none" stroke="#fff" stroke-linecap="round" stroke-linejoin="round" stroke-width="2"/><path d="m62.267,46.317v10" fill="none" stroke="#fff" stroke-linecap="round" stroke-linejoin="round" stroke-width="2"/><path d="m59.267,55.817c-4.167,10.333-8.333,20.667-12.5,31" fill="none" stroke="#fff" stroke-linecap="round" stroke-linejoin="round" stroke-width="2"/><path d="m88.267,52.817h-15" fill="none" stroke="#fff" stroke-linecap="round" stroke-linejoin="round" stroke-width="2"/><path d="m37.267,51.317c.667.5,1.317,1.405,2.003,1.432,3.661.144,7.332.108,10.995.002.347-.01.669-.935,1.002-1.435" fill="none" stroke="#fff" stroke-linecap="round" stroke-linejoin="round" stroke-width="2"/><path d="m61.267,67.817c2.852,2.72,1.318,5.928,1,9" fill="none" stroke="#fff" stroke-linecap="round" stroke-linejoin="round" stroke-width="2"/><path d="m61.767,38.817c-3.535-3.362-2.511-6.483.357-9.659,4.045,4.485,3.563,9.061-1.388,11.599-3.642,1.867-6.715,4.027-5.858,8.538.431,2.269,2.034,4.316,3.055,6.36,5.898-2.399,6.907-1.89,8.851,3.154,3.605,9.357,7.316,18.673,10.982,28.007" fill="none" stroke="#fff" stroke-linecap="round" stroke-linejoin="round" stroke-width="2"/><path d="m25.767,86.317c1.975-.439,3.951-.879,6-1.334v-38.646c-5.876-.226-6.977.657-6.989,5.481-.033,12.833.052,25.667-.049,38.5-.031,3.941,2.182,5.445,5.538,5.458,21.333.082,42.667.096,64-.004,4.214-.02,5.989-2.032,5.994-5.954.017-13.333.007-26.667.007-40.459-1.893-1.588-3.13-4.949-7.25-3.029v38.664c2.289.485,4.27.905,6.25,1.324" fill="none" stroke="#fff" stroke-linecap="round" stroke-linejoin="round" stroke-width="2"/></svg>