<?xml version="1.0" encoding="UTF-8"?><svg id="a" xmlns="http://www.w3.org/2000/svg" viewBox="0 0 125 125"><path d="m58.944,80.632c-.479,4.146,1.769,5.528,5.5,5.508,5.833-.031,11.667-.008,17.697-.008,2.43,3.369,4.928,6.832,7.426,10.294.428-.063.857-.126,1.285-.188.28-3.36.56-6.721.844-10.133,7.442-.792,7.407-.792,7.262-8.473-.079-4.165-.112-8.336.008-12.499.211-7.33,1.159-10.059-9.522-9.501" fill="none" stroke="#fff" stroke-linecap="round" stroke-linejoin="round" stroke-width="2"/><path d="m55.944,55.632c2.527-.439,4.608-1.871,3.837-4.451-.589-1.972-2.657-3.501-4.381-5.612-2.087,1.898-3.398,3.089-4.309,3.917-.574,4.091.739,6.231,4.353,6.646" fill="none" stroke="#fff" stroke-linecap="round" stroke-linejoin="round" stroke-width="2"/><path d="m28.444,28.632c-2.897.895-2.511,3.261-2.508,5.5.017,11.333-.004,22.667.013,34,.009,5.964.031,5.967,5.995,5.998,2.167.011,4.333.002,7.25.002v15.541c.443.156.886.312,1.328.468,4.305-5.167,8.611-10.335,13.338-16.008,7.911,0,16.247.027,24.584-.009,5.819-.026,6.497-.739,6.499-6.491.004-11.333-.1-22.668.058-33.999.053-3.755-1.305-5.086-5.058-5.058-16.999.13-34,.057-51,.057" fill="none" stroke="#fff" stroke-linecap="round" stroke-linejoin="round" stroke-width="2"/><path d="m64.444,38.132c-1.113.742-2.227,1.484-3.982,2.655-.875-2.099-1.59-3.813-2.358-5.655h-5.459c-.601,1.76-1.18,3.455-1.884,5.518-1.92-1.004-3.378-1.766-4.883-2.553-1.289,1.501-2.6,3.029-4.3,5.009.622.441,1.893,1.34,4.15,2.939-2.633,1.149-4.339,1.893-6.555,2.86-.063,1.211-.167,3.209-.246,4.748,2.332,1.091,4.083,1.91,6.122,2.864-1.383,1.823-2.249,2.965-3.545,4.674,1.274,1.273,2.608,2.606,3.698,3.694,2.341-1.07,3.971-1.816,6.025-2.755.438,1.956.782,3.491,1.242,5.542,1.994-.104,3.992-.207,5.777-.3.468-1.805.863-3.33,1.425-5.497,2.008,1.201,3.479,2.081,4.382,2.622,1.398-1.2,2.925-2.511,4.65-3.992-.788-1.143-1.552-2.251-2.769-4.015,1.857-.972,3.574-1.872,5.76-3.017v-5.342h-4.05c-.479-1.026-.921-1.974-1.418-3.038.84-1.008,1.61-1.933,2.791-3.351-1.433-1.271-2.753-2.441-4.073-3.611" fill="none" stroke="#fff" stroke-linecap="round" stroke-linejoin="round" stroke-width="2"/></svg>