<?xml version="1.0" encoding="UTF-8"?><svg id="a" xmlns="http://www.w3.org/2000/svg" viewBox="0 0 125 125"><path d="m80.18,51.846c0,12.833.113,25.668-.068,38.499-.055,3.896.797,6.87,4.57,8.5,5.319-1.418,6.479-2.787,6.489-7.999.027-14,.009-28,.009-42.317,5.806-1.866,8.295-6.058,7.491-12.182-.57-4.342-2.173-7.934-7.491-9.357v9.606h-11v-9.444c-8.961,3.474-10.469,13.282-3.538,19.238,1.591,1.367,2.705,3.289,4.038,4.956" fill="none" stroke="#fff" stroke-linecap="round" stroke-linejoin="round" stroke-width="2"/><path d="m85.68,50.346v39" fill="none" stroke="#fff" stroke-linecap="round" stroke-linejoin="round" stroke-width="2"/><path d="m66.68,70.346c1.264.639,2.527,1.278,2.687,1.359-.279,4.122-.582,7.129-.662,10.142-.102,3.831.095,7.671-.079,11.497-.079,1.745-.739,3.464-1.107,5.074-4.234-.179-4.356-2.555-4.345-5.072.021-5,.006-10,.006-15,0-.833.313-1.852-.051-2.47-2.174-3.683.286-4.66,3.051-5.53" fill="none" stroke="#fff" stroke-linecap="round" stroke-linejoin="round" stroke-width="2"/><path d="m66.18,45.346v24.5" fill="none" stroke="#fff" stroke-linecap="round" stroke-linejoin="round" stroke-width="2"/><path d="m50.68,67.346c-1.333-.168-2.666-.336-5.216-.656-.568,2.28-1.566,4.697-1.702,7.161-.275,4.985-.007,9.997-.113,14.995-.053,2.51-.434,5.013-.712,8.001h10.243c0-7.833,1.122-15.874-.278-23.449-1.833-9.918-.668-19.721-1.196-29.553-.296-5.517,1.081-7.074,6.189-7.95,2.635,1.095,5.064,2.105,8.036,3.34v-13.08c-2.863,1.145-5.1,2.04-7.603,3.042-14.149-5.958-25.532-1.645-32.145,11.11,5.867-.116,9.775-6.58,16.186-3.647.901,1.341,2.165,3.221,3.313,4.93v25.256" fill="none" stroke="#fff" stroke-linecap="round" stroke-linejoin="round" stroke-width="2"/></svg>