<?xml version="1.0" encoding="UTF-8"?><svg id="a" xmlns="http://www.w3.org/2000/svg" viewBox="0 0 302.975 302.975"><rect x="50.369" y="50.37" width="202.237" height="202.235" transform="translate(365.723 151.488) rotate(135)" fill="#fff" stroke="#000" stroke-miterlimit="10" stroke-width="12"/><g><path d="m61.963,158.014v-14.094c8.701-.657,17.052-1.201,25.387-1.931,34.505-3.02,69.053-4.868,103.703-3.955,2.067.055,4.759.422,6.045,1.739,4.671,4.785,10.667,4.702,16.499,5.404,15.413,1.856,30.831,3.666,46.245,5.513.807.097,1.594.36,2.325,1.185-3.889.368-7.778.74-11.668,1.103-14.934,1.394-29.864,2.828-44.805,4.139-2.884.253-5.306,1.074-6.913,3.564-2.281,3.537-5.438,4.53-9.599,4.46-17.256-.29-34.567.54-51.764-.541-23.611-1.484-47.135-4.335-70.7-6.568-1.535-.145-3.095-.019-4.754-.019Zm.668-1.515c43.931,3.972,87.258,9.936,131.31,6.862,0-7.561.007-14.964-.015-22.367-.001-.489-.222-.977-.335-1.444-43.634-2.158-86.817,2.258-130.227,5.519-.261,4.07-.497,7.759-.732,11.43Zm133.096,4.502c2.638-1.753,4.863-4.329,7.428-4.732,8.019-1.258,16.165-1.698,24.263-2.451,8.647-.804,17.295-1.602,25.943-2.403-11.983-1.831-23.973-2.889-35.852-4.679-7.179-1.082-15.224.395-21.063-5.804-.082-.087-.456.103-.719.17v19.899Z"/><path d="m48.108,164.875h-7.299v-25.802h7.299v25.802Z" fill="#aa6b0f" stroke="#231f20" stroke-miterlimit="10"/><path d="m62.631,156.499c.235-3.671.471-7.36.732-11.43,43.41-3.261,86.593-7.677,130.227-5.519.114.468.334.956.335,1.444.022,7.403.015,14.806.015,22.367-44.052,3.074-87.379-2.89-131.31-6.862Z" fill="#ad9e89"/><path d="m195.727,161.001v-19.899c.263-.067.637-.257.719-.17,5.839,6.2,13.884,4.722,21.063,5.804,11.879,1.79,23.869,2.848,35.852,4.679-8.648.801-17.296,1.599-25.943,2.403-8.098.753-16.244,1.192-24.263,2.451-2.565.402-4.79,2.979-7.428,4.732Z" fill="#b0b0b0"/></g></svg>