<?xml version="1.0" encoding="UTF-8"?><svg id="a" xmlns="http://www.w3.org/2000/svg" viewBox="0 0 302.975 302.975"><rect x="50.369" y="50.37" width="202.237" height="202.235" transform="translate(365.723 151.488) rotate(135)" fill="#fff" stroke="#000" stroke-miterlimit="10" stroke-width="12"/><g><path d="m49.738,139.582c-4.078,1.216-7.121,5.976-7.121,11.663,0,5.734,3.093,10.525,7.223,11.693l-.102-23.356Z" fill="#aa6b0f" stroke="#231f20" stroke-miterlimit="10"/><path d="m64.022,154.444c-1.299-.571-1.304-3.292-1.342-5.385-.085-4.711,1.06-4.895,5.733-5.228,40.579-2.896,81.184-5.055,121.887-3.958,2.81.076,5.564,1.556,8.38,2.235,4.324,1.042,8.634,2.333,13.029,2.856,15.161,1.804,30.358,3.313,45.538,4.964,1.075.117,2.124.477,3.111,1.442-8.551,1.036-17.1,2.087-25.653,3.104-9.758,1.16-19.526,2.237-29.274,3.478-2.007.255-4.34.564-5.834,1.73-3.861,3.015-8.071,3.451-12.734,3.41-13.613-.119-27.239-.231-40.84.239-14.223.492-28.108-2.017-42.091-3.734-13.217-1.623-38.615-4.583-39.911-5.153Zm129.118,7.344c-2.655-7.483-3.377-14.169.585-20.992-2.002,0-3.278,0-4.555,0-28.982.025-57.972-.487-86.9,2.05-11.457,1.005-22.943,1.699-34.428,2.32-2.735.148-3.984,1.641-3.77,3.741.205,2.014-.219,4.573,3.779,4.909,10.681.897,21.273,2.795,31.933,4.018,13.849,1.589,27.702,3.334,41.604,4.203,9.807.613,19.697-.154,29.55-.238,7.105-.061,14.211-.012,22.202-.012Zm1.048-1.532c4.095-1.185,8.009-2.854,12.074-3.399,15.508-2.076,31.065-3.79,46.604-5.639-4.956-.862-9.955-1.157-14.863-1.987-14.363-2.429-29.354-.936-43.136-6.749-4.289,5.951-2.289,12.154-.679,17.774Z"/><path d="m193.14,161.788c-7.991,0-15.097-.049-22.202.012-9.853.084-26.025,1.087-35.832.474-13.902-.869-21.474-2.85-35.323-4.439-10.659-1.223-21.252-3.121-31.933-4.018-3.998-.336-3.574-2.895-3.779-4.909-.214-2.1,1.035-3.593,3.77-3.741,11.485-.621,22.972-1.316,34.428-2.32,28.928-2.537,57.918-2.025,86.9-2.05,1.277-.001,2.553,0,4.555,0-3.962,6.824-3.24,13.51-.585,20.992Z" fill="#ad9e89"/><path d="m194.189,160.255c-1.61-5.62-3.61-11.823.679-17.774,13.782,5.814,28.773,4.32,43.136,6.749,4.908.83,9.907,1.125,14.863,1.987-15.539,1.849-31.095,3.562-46.604,5.639-4.065.544-7.979,2.214-12.074,3.399Z" fill="#b0b0b0"/></g></svg>