<?xml version="1.0" encoding="UTF-8"?><svg id="a" xmlns="http://www.w3.org/2000/svg" viewBox="0 0 302.975 302.975"><rect x="50.369" y="50.37" width="202.237" height="202.235" transform="translate(365.723 151.488) rotate(135)" fill="#fff" stroke="#000" stroke-miterlimit="10" stroke-width="12"/><g><path d="m61.872,167.335v-31.728c1.406-.105,2.764-.294,4.121-.294,41.006-.003,82.012-.014,123.017.124,1.631.006,3.833,1.035,4.782,2.323,3.679,4.994,8.103,7.315,14.511,7.839,16.247,1.328,32.419,3.595,48.62,5.493,1.018.119,2.03.295,3.118,1.27-2.148.212-4.301.382-6.443.644-17.087,2.086-34.166,4.243-51.263,6.247-3.679.431-4.708,3.664-6.957,5.631-1.401,1.226-3.356,2.561-5.067,2.567-41.657.138-83.314.105-124.971.092-1.015,0-2.031-.118-3.468-.207Zm124.253-30.411c-1.211-.12-2.087-.283-2.963-.284-38.995-.017-77.991.011-116.986-.089-2.935-.008-3.435,1.102-3.387,3.683.137,7.422.19,14.853-.028,22.271-.086,2.939.723,3.78,3.671,3.772,38.642-.097,77.285-.067,115.928-.08,1.231,0,2.461-.108,3.765-.169v-29.105Zm1.829,28.989c3.03,1.053,4.989.242,6.836-2.196,1.558-2.056,3.582-4.467,5.852-5.112,4.306-1.224,8.936-1.296,13.431-1.848,12.803-1.574,25.606-3.148,38.409-4.723-14.278-1.984-28.507-3.883-42.791-5.172-7.039-.635-13.424-1.543-17.254-8.531-.603-1.1-2.519-1.472-4.483-2.535v30.117Z"/><path d="m51.345,167.664h-8.412v-31.864l8.25-.036.162,31.9Z" fill="#aa6b0f" stroke="#231f20" stroke-miterlimit="10"/><path d="m186.124,136.924v29.105c-1.303.061-2.534.169-3.765.169-38.643.012-77.285-.017-115.928.08-2.948.007-3.757-.834-3.671-3.772.218-7.418.165-14.849.028-22.271-.048-2.58.452-3.69,3.387-3.683,38.995.1,77.99.071,116.986.089.876,0,1.752.163,2.963.284Z" fill="#ad9e89"/><path d="m187.953,165.913v-30.117c1.963,1.063,3.88,1.435,4.483,2.535,3.83,6.988,10.216,7.896,17.254,8.531,14.284,1.289,28.513,3.187,42.791,5.172-12.803,1.574-25.606,3.149-38.409,4.723-4.495.553-9.125.624-13.431,1.848-2.27.646-4.294,3.056-5.852,5.112-1.847,2.439-3.806,3.25-6.836,2.196Z" fill="#b0b0b0"/></g></svg>