<?xml version="1.0" encoding="UTF-8"?><svg id="a" xmlns="http://www.w3.org/2000/svg" viewBox="0 0 302.975 302.975"><rect x="50.369" y="50.37" width="202.237" height="202.235" transform="translate(365.723 151.488) rotate(135)" fill="#fff" stroke="#000" stroke-miterlimit="10" stroke-width="12"/><g><path d="m263.404,151.156c-10.774,1.02-21.548,2.043-32.322,3.058-8.102.763-16.222,1.384-24.297,2.363-1.921.233-3.641,1.814-5.558,2.472-2.486.853-5.09,2.036-7.619,1.978-15.267-.346-30.526-1.042-45.79-1.55-22.901-.762-45.804-1.475-68.707-2.186-3.5-.109-4.889-2.376-4.809-5.314.073-2.659.601-5.314,4.523-5.437,15.271-.478,30.537-1.141,45.802-1.815,20.039-.885,40.071-1.947,60.114-2.713,6.478-.247,12.892-.87,19.164,2.862,3.211,1.911,8.046,1.135,12.154,1.489,15.218,1.314,30.44,2.589,45.659,3.897.586.05,1.156.287,1.733.438-.015.153-.03.305-.046.458Zm-68.478-8.171c-.214-.026-.958-.217-1.693-.187-10.586.433-21.17.902-31.755,1.35-18.211.772-36.423,1.534-54.634,2.304-8.908.376-17.815.798-26.725,1.116-2.987.107-4.78,1.47-4.584,4.455.183,2.784,1.874,4.246,4.877,4.321,20.041.504,40.082,1.044,60.12,1.676,11.371.359,22.733,1.015,34.104,1.345,6.917.201,13.844.037,20.29.037v-16.418Zm2.28,1.274c-3.051,4.961-1.771,9.939-.114,14.442,4.134-1.254,7.924-2.751,11.857-3.5,4.04-.769,8.221-.786,12.336-1.171,10.512-.983,21.023-1.988,31.534-2.984-6.101-.854-12.214-.924-18.211-1.792-12.383-1.792-25.3.314-37.402-4.995Z"/><path d="m48.828,142.562c4.982.005,9.326,4.45,9.286,9.504-.041,5.135-4.343,9.207-9.608,9.093-5.167-.112-8.994-4.034-8.98-9.202.014-5.243,4.129-9.399,9.302-9.394Z" fill="#aa6b0f" stroke="#231f20" stroke-miterlimit="10"/><path d="m194.926,142.984v16.418c-6.445,0-13.373.164-20.29-.037-11.372-.33-22.733-.986-34.104-1.345-20.038-.632-40.079-1.171-60.12-1.676-3.003-.076-4.694-1.538-4.877-4.321-.196-2.985,1.597-4.348,4.584-4.455,8.91-.319,17.817-.74,26.725-1.116,18.211-.769,36.423-1.532,54.634-2.304,10.585-.449,21.169-.917,31.755-1.35.735-.03,1.479.161,1.693.187Z" fill="#ad9e89"/><path d="m197.205,144.258c12.102,5.309,25.019,3.203,37.402,4.995,5.997.868,12.11.938,18.211,1.792-10.511.996-21.022,2.001-31.534,2.984-4.115.385-8.296.402-12.336,1.171-3.933.749-7.723,2.246-11.857,3.5-1.657-4.503-2.937-9.481.114-14.442Z" fill="#b0b0b0"/></g></svg>