<?xml version="1.0" encoding="UTF-8"?><svg id="a" xmlns="http://www.w3.org/2000/svg" viewBox="0 0 302.975 302.975"><rect x="50.369" y="50.37" width="202.237" height="202.235" transform="translate(365.723 151.488) rotate(135)" fill="#fff" stroke="#000" stroke-miterlimit="10" stroke-width="12"/><g><path d="m75.84,158.048v-12.508c8.889-.582,17.871-1.581,26.864-1.683,30.991-.35,61.986-.389,92.98-.531.622-.003,1.397-.022,1.845.311,7.625,5.676,16.706,3.605,25.144,4.534,12.217,1.345,24.526,1.843,36.796,2.716.466.033.922.203,1.406,1.017-2.575.133-5.151.24-7.724.402-15.732.992-31.464,1.976-47.191,3.032-1.512.102-3.324.253-4.428,1.112-3.993,3.107-8.485,3.215-13.221,3.198-26.724-.097-53.449.092-80.171-.123-10.703-.086-21.4-.955-32.299-1.477Zm120.227.229c0-3.649-.21-6.764.058-9.837.272-3.125-.836-3.953-3.908-3.927-15.93.135-31.865-.166-47.792.086-21.219.336-42.431,1.051-63.647,1.575-2.737.068-4.542.798-4.089,4.09.19,1.382-.399,2.926-.015,4.211.313,1.047,1.494,2.534,2.382,2.601,7.6.574,15.219,1.15,22.836,1.196,29.823.177,59.647.162,89.47.206,1.396.002,2.793-.115,4.705-.2Zm1.307-1.828c2.635-.773,4.781-1.773,7.002-1.984,6.561-.621,13.152-.919,19.729-1.364,7.078-.478,14.154-.98,21.231-1.471-4.944-.859-9.885-.843-14.729-1.522-11.052-1.547-22.661,1.158-33.234-4.455v10.794Z"/><path d="m42.101,144.071l14.62.178h0s-.029,9.784-.029,13.977h-14.591v-14.156Z" fill="#aa6b0f" stroke="#231f20" stroke-miterlimit="10"/><path d="m196.067,158.277c-1.912.085-3.308.202-4.705.2-29.824-.044-59.647-.029-89.47-.206-7.617-.045-15.236-.622-22.836-1.196-.888-.067-2.684-1.986-2.551-3.254.14-1.334.111-2.509.02-3.844-.226-3.315,1.516-3.736,4.253-3.804,21.216-.523,42.428-1.239,63.647-1.575,15.927-.252,31.862.049,47.792-.086,3.072-.026,4.18.802,3.908,3.927-.268,3.073-.058,6.189-.058,9.837Z" fill="#ad9e89"/><path d="m197.373,156.448v-10.794c10.573,5.613,22.182,2.907,33.234,4.455,4.844.678,9.785.662,14.729,1.522-7.077.491-14.153.993-21.231,1.471-6.578.445-13.169.743-19.729,1.364-2.221.21-4.366,1.211-7.002,1.984Z" fill="#b0b0b0"/></g></svg>