<?xml version="1.0" encoding="UTF-8"?><svg id="a" xmlns="http://www.w3.org/2000/svg" viewBox="0 0 302.975 302.975"><rect x="50.369" y="50.37" width="202.237" height="202.235" transform="translate(365.723 151.488) rotate(135)" fill="#fff" stroke="#000" stroke-miterlimit="10" stroke-width="12"/><g><path d="m74.527,156.942v-12.338c4.233,0,8.348.06,12.46-.01,18.002-.308,36.004-.632,54.005-.992,17.995-.36,35.988-.847,53.984-1.051,2.081-.024,4.571.926,6.184,2.257,3.27,2.697,6.621,3.708,10.915,3.826,15.901.435,31.787,1.397,47.678,2.184.575.028,1.137.301,1.678,1.147-6.048.383-12.097.741-18.143,1.156-11.62.796-23.245,1.535-34.849,2.524-2.079.177-4.35,1.057-6.031,2.295-3.056,2.251-6.312,2.585-9.89,2.468-14.625-.479-29.253-.864-43.881-1.253-23.941-.636-47.882-1.247-71.823-1.881-.636-.017-1.268-.178-2.29-.33Zm121.81,2.409c-2.224-3.883-3.421-7.725-8.103-7.728-36.372-.019-72.744.023-109.117-.041-3.473-.006-4.455,1.189-3.198,4.418,39.955,1.112,79.821,2.221,120.417,3.351Zm-.67-15.688c-2.333,0-4.264-.032-6.194.005-16.825.323-33.649.676-50.474.987-17.736.328-35.473.604-53.209.945-2.711.052-5.44.19-8.114.594-.821.124-1.488,1.265-2.225,1.94.802.611,1.543,1.346,2.43,1.786.521.259,1.274.051,1.922.051,35.92.017,71.841.006,107.761.086,4.191.009,6.92-1.496,8.103-6.395Zm49.607,8.267c-.007-.249-.015-.499-.022-.748-7.249-.377-14.565-.272-21.731-1.254-8.66-1.186-18.436,2.363-25.298-5.845-2.024,2.711-3.757,5.033-5.407,7.242,1.634,2.19,3.446,4.617,4.839,6.484,3.232-1.144,5.989-2.742,8.875-3.026,8.86-.869,17.772-1.205,26.66-1.809,4.033-.274,8.057-.692,12.084-1.044Z"/><path d="m57.378,142.915v15.923c-5.206-2.619-10.093-5.078-15.835-7.966,5.602-2.815,10.477-5.265,15.835-7.957Z" fill="#aa6b0f" stroke="#231f20" stroke-miterlimit="10"/><path d="m196.337,159.351c-40.596-1.13-80.462-2.239-120.417-3.351-1.257-3.229-.275-4.424,3.198-4.418,36.372.064,72.744.022,109.117.041,4.681.002,5.878,3.845,8.103,7.728Z" fill="#ad9e89"/><path d="m75.85,146.08c2.674-.404,7.229-.428,9.941-.48,17.736-.341,35.473-.617,53.209-.945,16.825-.311,33.649-.664,50.474-.987,1.93-.037,3.861-.005,6.194-.005-1.183,4.899-3.912,6.404-8.103,6.395-35.92-.081-71.841-.07-107.761-.086-.649,0-3.537.355-3.953-.051-.778-.758,0-3.84,0-3.84Z" fill="#ad9e89"/><path d="m245.274,151.93c-4.028.352-8.051.77-12.084,1.044-8.888.604-17.799.94-26.66,1.809-2.886.283-5.643,1.882-8.875,3.026-1.393-1.867-3.205-4.294-4.839-6.484,1.649-2.209,3.383-4.531,5.407-7.242,6.862,8.208,16.638,4.66,25.298,5.845,7.167.981,14.482.877,21.731,1.254.007.249.015.499.022.748Z" fill="#b0b0b0"/></g></svg>