<?xml version="1.0" encoding="UTF-8"?><svg id="a" xmlns="http://www.w3.org/2000/svg" viewBox="0 0 105.819 105.821"><circle cx="52.91" cy="52.911" r="50.41" fill="#fff" stroke="#231f20" stroke-miterlimit="10" stroke-width="5"/><g><g><path d="m56.612,55.373c-1.262-4.708-1.418-4.855-5.892-4.919-2.828-.04-5.667.123-8.483-.071-3.426-.236-5.06-3.198-3.07-5.944,1.237-1.706,2.173-3.117,1.705-5.273-.115-.532.277-1.553.719-1.767,4.058-1.972,2.159-8.027,6.693-9.647.757-.27,1.45-.837,2.047-1.401.588-.555,1.171-1.213,1.487-1.943,1.533-3.536,1.535-3.589,4.681-1.307,2.782,2.017,4.919,4.434,4.961,8.187.01.873.411,2.003,1.037,2.558,1.646,1.458,2.338,3.062,2.117,5.28-.08.802.637,1.753,1.15,2.531,3.132,4.748,2.091,7.65-3.356,8.781-2.805.582-3.76,2.387-3.975,4.923l.191-.172c-.734,0-1.468,0-2.202,0l.191.183Z"/><path d="m58.432,55.361c.826-.931,1.519-2.065,2.524-2.725.729-.478,1.871-.328,2.829-.457.101.866.504,1.831.256,2.582-2.958,8.974-6.012,17.917-9.044,26.866-.16.471-.302.958-.536,1.392-.87,1.613-2.014,1.683-2.91.166-.335-.567-.576-1.199-.788-1.826-2.983-8.791-5.979-17.577-8.915-26.384-.915-2.744-.831-2.806,1.918-2.917,1.492-.06,3.005.129,4.478-.049,3.446-.418,6.348.325,8.366,3.364l-.191-.183c.735,1.328,1.469,1.482,2.202,0,0,0-.191.172-.191.172Z"/><path d="m58.623,55.189c-.734,1.483-1.468,1.329-2.202,0,.734,0,1.468,0,2.202,0Z" fill="#fff"/><path d="m43.069,56.244c0-.583,4.502-1.055,10.065-1.055" fill="none" stroke="#fff" stroke-miterlimit="10" stroke-width=".75"/><path d="m44.416,62c0-1.286,8.049-2.326,17.997-2.326" fill="none" stroke="#fff" stroke-miterlimit="10" stroke-width=".75"/><path d="m46.261,68.09c0-1.435,6.352-2.597,14.201-2.597" fill="none" stroke="#fff" stroke-miterlimit="10" stroke-width=".75"/><path d="m48.747,74.387c0-.749,3.925-1.355,8.776-1.355" fill="none" stroke="#fff" stroke-miterlimit="10" stroke-width=".75"/><path d="m50.765,81.359c0-.607,2.101-1.098,4.697-1.098" fill="none" stroke="#fff" stroke-miterlimit="10" stroke-width=".75"/></g><path d="m57.522,34.274c0,1.489-3.925,2.693-8.776,2.693" fill="none" stroke="#fff" stroke-miterlimit="10"/><path d="m60.513,38.458c0,2.885-7.2,5.219-16.097,5.219" fill="none" stroke="#fff" stroke-miterlimit="10"/><path d="m64.121,43.677c0,1.303-3.273,2.358-7.318,2.358" fill="none" stroke="#fff" stroke-miterlimit="10"/></g></svg>