<?xml version="1.0" encoding="UTF-8"?><svg id="a" xmlns="http://www.w3.org/2000/svg" viewBox="0 0 105.819 105.821"><circle cx="52.91" cy="52.911" r="50.41" fill="#fff" stroke="#231f20" stroke-miterlimit="10" stroke-width="5"/><g><path d="m63.483,29.458c-.73,7.087-1.314,12.768-2.021,19.636,6.436-3.663,2.326-9.827,5.94-13.689,8.786,4.144,7.771,14.829,14.086,21.498-2.004.924-3.825,1.764-6.501,2.998-3.131,10.59-9.572,18.926-22.763,18.417-11.62-.448-18.056-7.437-20.919-18.526-2.01-.69-4.046-1.389-6.972-2.393,6.141-6.682,5.572-16.736,14.478-22.355,1.147,4.669,2.207,8.983,3.267,13.297,3.641-5.98.286-11.767.854-17.995,6.432-4.435,13.065-2.894,20.552-.888Zm-28.246,29.237c2.996,11.376,8.064,15.889,17.199,16.118,9.665.242,15.015-4.111,18.608-15.865-12.034-.486-23.781-.174-35.807-.252Zm37.652-6.291c-13.073-2.393-32.802-1.863-37.981.64,7.028,2.266,29.252,2.242,37.981-.64Z"/><path d="m35.237,58.695c12.026.078,23.773-.234,35.807.252-3.592,11.754-8.943,16.107-18.608,15.865-9.136-.228-14.203-4.741-17.199-16.118Z" fill="#fff"/><path d="m72.89,52.405c-8.729,2.883-30.952,2.906-37.981.64,5.179-2.503,24.908-3.033,37.981-.64Z" fill="#fff"/></g></svg>