<?xml version="1.0" encoding="UTF-8"?><svg id="a" xmlns="http://www.w3.org/2000/svg" viewBox="0 0 105.819 105.821"><circle cx="52.91" cy="52.911" r="50.41" fill="#fff" stroke="#231f20" stroke-miterlimit="10" stroke-width="5"/><g><path d="m55.602,82.138c-.827-.977-1.576-1.861-2.256-2.665-.388,0-.816-.098-.881.014-1.645,2.838-4.28,3.455-7.18,2.915-2.458-.458-4.908-1.161-7.227-2.092-1.701-.682-3.088-2.153-4.792-2.822-1.676-.658-3.575-.749-5.517-1.115v-26.202c.68-.381,1.48-.809,2.26-1.269,2.63-1.553,3.945-3.847,3.93-6.919-.02-4.129-.004-8.257-.003-12.386,0-1.314,0-2.627,0-4.097,4.718-1.219,9.104-2.607,13.88-2.164,3.037.282,6.152.38,9.173.036,5.055-.574,9.714.851,14.838,2.017,0,3.013,0,5.912,0,8.81,0,2.264.081,4.532-.019,6.792-.18,4.046,1.432,6.933,5.187,8.568.35.152.656.405,1.077.672v26.093c-.634.159-1.24.447-1.842.439-2.37-.028-4.361.804-6.281,2.174-4.305,3.072-9.089,4.193-14.345,3.2Zm-2.249-35.543c.763-2.722,1.311-5.028,2.058-7.267,1.347-4.036,2.82-8.03,4.222-12.048.279-.801.478-1.63.711-2.436h-14.939c2.002,7.484,5.731,14.19,6.848,21.75h1.1Zm15.828,7.391v-27.881c-1.153-.134-1.895-.22-3.11-.36v28.294h-10.846c.117,1.263.193,2.095.266,2.885h21.117c-.052-1.062-.093-1.891-.144-2.938h-7.283Zm-29.628-.073v-28.232c-1.229.289-2.068.486-3.175.747v27.332c-2.516.119-4.728.223-7.036.333v2.837h20.916c.135-.695.323-1.206.304-1.709-.014-.359-.305-.708-.589-1.307h-10.42Zm-10.528,13.575c.118,1.214.199,2.043.275,2.825h21.093v-2.825h-21.368Zm26.008.045c.292,1.227.484,2.035.706,2.972,3.687,0,7.14.027,10.591-.008,3.4-.035,6.816.156,10.16-.128v-2.836h-21.458Z"/><path d="m53.353,46.595h-1.1c-1.116-7.56-4.845-14.266-6.848-21.75h14.939c-.233.806-.432,1.635-.711,2.436-1.402,4.018-2.876,8.012-4.222,12.048-.747,2.24-1.295,4.546-2.058,7.267Z" fill="#fff"/><path d="m69.181,53.986h7.283c.051,1.047.092,1.876.144,2.938h-21.117c-.073-.79-.149-1.621-.266-2.885h10.846v-28.294c1.215.141,1.956.227,3.11.36v27.881Z" fill="#fff"/><path d="m39.553,53.913h10.42c.284.6.575.948.589,1.307.019.503-.168,1.014-.304,1.709h-20.916v-2.837c2.309-.109,4.521-.214,7.036-.333v-27.332c1.107-.26,1.946-.458,3.175-.747v28.232Z" fill="#fff"/><path d="m29.025,67.487h21.368v2.825h-21.093c-.076-.782-.157-1.611-.275-2.825Z" fill="#fff"/><path d="m55.032,67.532h21.458v2.836c-3.345.284-6.761.093-10.16.128-3.452.035-6.904.008-10.591.008-.223-.936-.415-1.745-.706-2.972Z" fill="#fff"/></g></svg>