<?xml version="1.0" encoding="UTF-8"?><svg id="a" xmlns="http://www.w3.org/2000/svg" viewBox="0 0 105.819 105.821"><circle cx="52.91" cy="52.911" r="50.41" fill="#fff" stroke="#231f20" stroke-miterlimit="10" stroke-width="5"/><g><path d="m53.02,83.976c-17.166.052-31.376-13.934-31.397-30.901-.022-17.103,13.918-31.093,31.118-31.23,17.072-.135,31.275,13.834,31.455,30.94.179,16.931-14.023,31.139-31.176,31.191Zm7.449-35.235c-.282-.39-.789-1.321-1.51-2.034-1.053-1.042-2.165-2.093-3.435-2.823-.856-.493-2.18-.871-3.033-.568-9.578,3.405-17.983,8.568-24.314,16.726-1.062,1.368-1.775,2.519-.833,4.453,3.626,7.44,9.368,12.369,17.076,15.142,1.729.622,3.106.458,4.316-1.236,6.212-8.704,9.847-18.417,11.734-29.659Zm20.77,5.055c-.546-3.373-.766-5.858-1.372-8.245-1.241-4.893-2.16-5.617-7.098-5.954-1.049-.072-3.061.34-3.056.467.089,2.268-2.735,4.293-1.026,6.496,4.133,5.329,7.239,11.048,8.115,17.828.035.27.415.745.464.725.392-.167.981-.362,1.07-.674,1.079-3.784,2.082-7.59,2.904-10.642Zm-44.425-23.602c5.045,1.107,9.85,1.755,14.349,3.296,2.872.984,5.136,1.477,7.842-.233,1.233-.779,2.899-.713,2.531-2.858-.33-1.923-.016-4.115-2.682-4.725-8.066-1.845-15.29-.078-22.04,4.52Zm25.495,14.401c1.968.026,3.806-1.688,3.914-3.65.141-2.546-2.312-5.075-4.953-5.107-2.121-.025-3.757,1.487-3.885,3.593-.152,2.503,2.353,5.13,4.923,5.164Z"/><path d="m60.468,48.742c-1.886,11.242-5.522,20.955-11.734,29.659-1.209,1.695-2.587,1.858-4.316,1.236-7.708-2.773-13.451-7.701-17.076-15.142-.942-1.933-.229-3.084.833-4.453,6.332-8.158,14.736-13.321,24.314-16.726.854-.303,2.177.075,3.033.568,1.269.731,2.382,1.781,3.435,2.823.721.714,1.228,1.644,1.51,2.034Z" fill="#fff"/><path d="m81.238,53.796c-.822,3.052-1.825,6.858-2.904,10.642-.089.312-.678.507-1.07.674-.049.021-.429-.454-.464-.725-.876-6.78-3.982-12.499-8.115-17.828-1.709-2.203,1.116-4.228,1.026-6.496-.005-.127,2.007-.538,3.056-.467,4.938.337,5.857,1.061,7.098,5.954.605,2.387.826,4.872,1.372,8.245Z" fill="#fff"/><path d="m36.813,30.194c6.75-4.598,13.974-6.365,22.04-4.52,2.666.61,2.352,2.801,2.682,4.725.368,2.145-1.298,2.079-2.531,2.858-2.707,1.709-4.97,1.216-7.842.233-4.499-1.541-9.303-2.189-14.349-3.296Z" fill="#fff"/><path d="m62.308,44.596c-2.57-.034-5.076-2.661-4.923-5.164.128-2.105,1.764-3.618,3.885-3.593,2.64.032,5.093,2.561,4.953,5.107-.108,1.962-1.946,3.675-3.914,3.65Z" fill="#fff"/></g><path d="m43.711,85.54v-.344" fill="none" stroke="#fff" stroke-miterlimit="10" stroke-width=".75"/></svg>