<?xml version="1.0" encoding="UTF-8"?><svg id="a" xmlns="http://www.w3.org/2000/svg" viewBox="0 0 105.819 105.821"><circle cx="52.91" cy="52.911" r="50.41" fill="#fff" stroke="#231f20" stroke-miterlimit="10" stroke-width="5"/><path d="m8.161,81.731c-.93-5.268.959-7.757,5.774-7.697.286.004.57.195.855.299-.161.279-.254.662-.495.82-1.368.895-2.992,1.522-4.096,2.661-.965.995-1.358,2.544-2.038,3.917Z" fill="#fff"/><path d="m41.915,82.387c-.47-6.043.887-7.96,5.245-8.169.357-.017.732.355,1.099.546-.205.215-.383.466-.619.638q-4.086,2.995-5.725,6.985Z" fill="#fff"/><path d="m65.458,74.178c.206.233.412.465.618.698-.248.144-.58.465-.726.395-.293-.14-.486-.493-.719-.757.275-.112.55-.224.827-.335Z" fill="#fff"/><path d="m5.025,74.914c-.262.138-.53.392-.784.379-.242-.012-.469-.303-.703-.472.258-.148.524-.424.772-.409.248.015.478.321.715.502Z" fill="#fff"/><g><path d="m49.081,40.815c.148,3.459.198,6.824-.071,10.237-.589,7.458-.334,14.754.818,22.197,1.147,7.41-5.032,12.202-12.381,10.412-1.361-.331-2.671-1.307-3.733-2.282-.812-.745-1.448-1.892-1.729-2.973-2.378-9.123-4.674-18.267-6.955-27.415-.683-2.739-1.387-5.486-1.824-8.27-1.477-9.394,3.513-17.566,12.254-20.269,5.582-1.726,10.18-.168,11.496,5.489,1.302,5.598,1.988,9.669,2.125,12.875Zm-22.305,11.115c.002,4.923,1.507,9.216,4.747,12.827.343.382,1.155.343,1.749.499.147-.602.59-1.345.383-1.779-.565-1.184-1.268-2.364-2.159-3.32-4.186-4.49-3.974-9.161-.793-14.037.634-.972,1.167-2.017,1.863-2.941,4.79-6.358,4.625-6.48,9.701-.157,3.947,4.917,5.648,10.129,1.869,15.978-.355.55-.72,1.201-.757,1.824-.054.897.189,1.811.305,2.718.737-.487,1.534-.907,2.187-1.489.337-.3.459-.875.61-1.347,2.804-8.782,1.415-16.691-4.883-23.604-1.497-1.643-2.879-3.392-4.313-5.092-1.417,1.756-2.805,3.538-4.258,5.264-3.601,4.276-6.542,8.818-6.25,14.655Z"/><path d="m82.867,42.8c-1.149,4.64-2.964,12.016-4.808,19.385-.682,2.727-1.464,5.428-2.148,8.155-.685,2.735-1.055,5.576-2.008,8.21-1.601,4.424-4.44,5.834-9.492,5.214-4.89-.6-8.217-3.353-8.365-7.722-.111-3.272.475-6.612,1.11-9.852.552-2.816,1.146-5.531.035-8.323-.18-.451-.236-.984-.22-1.474.272-8.259.523-16.52.895-24.775.058-1.289.569-2.602,1.072-3.82,2.12-5.13,5.934-6.955,11.232-5.467,7.88,2.213,12.867,9.097,12.698,20.467Zm-3.686,9.05c.242-5.706-2.616-10.288-6.276-14.556-1.266-1.476-2.396-3.071-3.557-4.635-.746-1.005-1.008-.776-1.57.26-.676,1.247-1.626,2.415-2.677,3.378-4.419,4.052-6.794,9.211-6.922,15.006-.082,3.703,1.239,7.452,2.1,11.141.116.497,1.227.761,1.877,1.133.211-.735.753-1.569.568-2.185-.472-1.578-1.231-3.077-1.942-4.575-1.191-2.51-1.897-5.247-.533-7.691,1.925-3.447,4.344-6.626,6.649-9.85.998-1.396,2.315-1.279,3.272.06,2.212,3.095,4.487,6.166,6.409,9.44,1.965,3.347,1.417,6.7-.935,9.777-1.109,1.451-2.251,2.896-3.159,4.47-.31.537.05,1.46.104,2.207.716-.25,1.684-.285,2.107-.784,3.015-3.555,4.444-7.73,4.484-12.596Z"/><path d="m26.776,51.93c-.292-5.836,2.649-10.379,6.25-14.655,1.454-1.726,2.841-3.508,4.258-5.264,1.435,1.7,2.816,3.448,4.313,5.092,6.298,6.913,7.687,14.822,4.883,23.604-.151.472-.273,1.047-.61,1.347-.653.582-1.45,1.002-2.187,1.489-.116-.907-.359-1.821-.305-2.718.037-.623.402-1.274.757-1.824,3.779-5.849,2.078-11.061-1.869-15.978-5.076-6.323-4.911-6.201-9.701.157-.696.924-1.229,1.969-1.863,2.941-3.181,4.875-3.393,9.547.793,14.037.891.956,1.594,2.136,2.159,3.32.207.433-.237,1.177-.383,1.779-.594-.156-1.407-.117-1.749-.499-3.24-3.612-4.745-7.904-4.747-12.827Z" fill="#fff"/><path d="m79.181,51.85c-.04,4.866-1.469,9.042-4.484,12.596-.423.498-1.391.534-2.107.784-.054-.747-.414-1.67-.104-2.207.908-1.574,2.05-3.019,3.159-4.47,2.352-3.077,2.9-6.43.935-9.777-1.921-3.274-4.197-6.345-6.409-9.44-.957-1.339-2.274-1.457-3.272-.06-2.305,3.224-4.724,6.403-6.649,9.85-1.364,2.444-.658,5.181.533,7.691.711,1.499,1.47,2.997,1.942,4.575.184.617-.357,1.45-.568,2.185-.65-.372-1.761-.636-1.877-1.133-.862-3.689-2.182-7.439-2.1-11.141.128-5.794,2.503-10.953,6.922-15.006,1.051-.963,2-2.131,2.677-3.378.561-1.035.823-1.265,1.57-.26,1.161,1.564,2.291,3.159,3.557,4.635,3.66,4.268,6.519,8.85,6.276,14.556Z" fill="#fff"/></g></svg>