<?xml version="1.0" encoding="UTF-8"?><svg id="a" xmlns="http://www.w3.org/2000/svg" viewBox="0 0 105.819 105.821"><circle cx="52.91" cy="52.911" r="50.41" fill="#fff" stroke="#231f20" stroke-miterlimit="10" stroke-width="5"/><g><path d="m75.278,38.067c-1.129,1.18-2.342.367-3.254-.157-1.47-.846-2.843-1.945-4.058-3.139-8.66-8.511-21.775-8.509-30.413.115-1.625,1.623-3.223,3.216-5.594,3.587-.557.087-1.172-.188-1.791-.301,2.193-7.217,12.405-14.761,23.482-14.314,9.796.395,19.394,6.782,21.628,14.21Z"/><path d="m78.415,65.855c.652-4.032,0-8.135.397-12.747.637.936,1.17,1.43,1.348,2.03.792,2.668,1.633,5.337,2.172,8.062.639,3.234.265,6.472-1.839,9.098-1.018,1.27-2.66,2.108-4.15,2.896-.513.272-1.42-.201-2.272-.357v-24.319c.333-.255.834-.64,1.711-1.311-.351-2.932-.732-6.106-1.221-10.185,2.286,2.859,2.527,5.342,2.57,7.823.09,5.185.055,10.373.097,15.56.009,1.133.129,2.265.198,3.398.329.017.659.035.988.052Z"/><path d="m28.314,65.808c0-1.297,0-2.594,0-3.891-.001-4.794-.055-9.588.012-14.38.051-3.644.646-5.372,2.842-8.368-.599,3.734-1.078,6.72-1.573,9.806.69.601,1.238,1.079,1.952,1.702,0,7.305-.015,14.751.016,22.197.005,1.184-.244,2.1-1.477,2.512-4.94-1.631-6.675-3.889-6.864-8.917-.174-4.611.964-8.896,3.209-13.473.985,4.582-.304,8.828.815,12.85.356-.012.712-.025,1.068-.037Z"/><path d="m33.3,50.027c.839-.079,1.481-.206,2.117-.182.642.025,1.279.2,2.034.329.337.774.909,1.483.918,2.198.077,6.65.084,13.3.03,19.95-.006.731-.516,1.458-.872,2.398-1.294.179-2.557.354-3.777.524-.878-3.018-1.112-17.186-.449-25.217Z"/><path d="m67.656,50.075h4.547v24.94c-1.497-.072-2.749-.132-4.072-.196-.324-.979-.781-1.71-.773-2.435.085-7.256-.383-14.53.298-22.309Z"/></g></svg>