<?xml version="1.0" encoding="UTF-8"?><svg id="a" xmlns="http://www.w3.org/2000/svg" viewBox="0 0 105.819 105.821"><circle cx="52.91" cy="52.911" r="50.41" fill="#fff" stroke="#231f20" stroke-miterlimit="10" stroke-width="5"/><g><g><path d="m25.009,63.606c-2.046-.838-2.032-2.423-1.485-4.172.497-1.588,1.038-3.162,1.56-4.742l-.303.293c.686-.674,1.371-1.347,2.057-2.02,0,0-.291.329-.291.329,2.698-1.178,1.991-2.433.084-3.715l.083.092c2.465-6.863,8.313-10.697,13.589-14.994,1.761-1.434,3.94-2.356,6.332-3.747,1.594-5.058,5.179-8.37,10.408-8.952,4.657,4.297,9.066,8.365,13.337,12.305-.284.936-.277,1.658-.631,1.971-6.984,6.166-12.389,13.082-15.564,22.256-1.728,4.993-7.129,8.748-11.024,12.921-.557.597-1.968.397-3.373.631-1.141-4.806,3.299-6.831,4.488-11.44-6.468,3.462-8.609,9.9-13.486,13.61-5.639-3.612.054-7.356-.714-10.76,1.132-1.07,2.264-2.139,3.397-3.209-.461-.326-.922-.652-1.383-.977-.618,1.444-1.237,2.887-1.855,4.331-1.504,1.425-3.008,2.85-4.806,4.554-.217-1.676-.415-3.205-.612-4.733.565-1.177,1.131-2.354,1.696-3.531,2.255-.556,3.992-1.42,2.263-4.724-.789,1.87-1.426,3.38-2.062,4.891-.568,1.178-1.135,2.357-1.703,3.535Zm14.192-5.168c-1.132-4.456-3.276-7.652-8.067-12.025.78,6.175,1.798,7.692,8.067,12.025Zm19.723-23.354c.469-.514.939-1.027,1.408-1.541-2.453-2.222-3.789-5.741-8.761-5.117,2.451,2.219,4.902,4.438,7.353,6.657Z"/><path d="m23.245,55.013c-.117-2.551.772-4.454,3.379-5.251l-.083-.092c-.028,1.238-.056,2.477-.084,3.715,0,0,.291-.329.291-.329-.686.673-1.371,1.347-2.057,2.02l.303-.293c-.659.002-1.319.004-1.978.007l.227.222Z"/><path d="m39.113,58.531c-6.269-4.333-7.287-5.85-8.067-12.025,4.791,4.373,6.935,7.569,8.067,12.025Z" fill="#fff"/><path d="m58.836,35.177c-2.451-2.219-4.902-4.438-7.353-6.657,4.972-.624,6.308,2.895,8.761,5.117-.469.514-.939,1.027-1.408,1.541Z" fill="#fff"/><path d="m30.146,63.707c.618-1.444,1.237-2.887,1.855-4.331.461.326.922.652,1.383.977-1.132,1.07-2.265,2.139-3.397,3.209,0,0,.159.144.159.144Z" fill="#fff"/><path d="m26.624,60.164c.637-1.51,1.274-3.02,2.062-4.891,1.729,3.304-.008,4.168-2.263,4.724l.201.167Z" fill="#fff"/><path d="m26.423,59.997c-.565,1.177-1.131,2.354-1.696,3.531l.194.171c.568-1.178,1.135-2.357,1.703-3.535l-.201-.167Z" fill="#fff"/><path d="m26.458,53.385c.028-1.238.056-2.477.084-3.715,1.907,1.282,2.614,2.537-.084,3.715Z" fill="#fff"/></g><path d="m79.3,69.686c-.637-1.51-1.274-3.02-2.062-4.891-1.729,3.304.008,4.168,2.263,4.724.565,1.177,1.131,2.354,1.696,3.531-.198,1.528-.395,3.057-.612,4.733-1.798-1.704-3.302-3.129-4.806-4.554l-1.855-4.331c-.461.326-.922.652-1.383.977,1.132,1.07,2.265,2.139,3.397,3.209-.768,3.405,4.925,7.148-.714,10.76-4.877-3.711-7.018-10.148-13.486-13.61,1.189,4.609,5.628,6.633,4.488,11.44-1.405-.233-2.816-.034-3.373-.631-3.895-4.173-9.295-7.928-11.024-12.921-3.175-9.173-8.58-16.09-15.564-22.256-.354-.313-.347-1.035-.631-1.971,4.271-3.941,8.68-8.009,13.337-12.305,5.229.582,8.814,3.894,10.408,8.952,2.393,1.391,4.571,2.313,6.332,3.747,5.276,4.297,11.124,8.131,13.589,14.994l.083-.092c-1.907,1.282-2.614,2.537.084,3.715,0,0-.291-.329-.291-.329.686.673,1.371,1.347,2.057,2.02l-.303-.293c.522,1.58,1.063,3.155,1.56,4.742.547,1.749.561,3.334-1.485,4.172-.568-1.178-1.135-2.357-1.703-3.535Zm-4.422-13.658c-4.791,4.373-6.935,7.569-8.067,12.025,6.269-4.333,7.287-5.85,8.067-12.025Zm-20.437-17.986c-4.972-.624-6.308,2.895-8.761,5.117.469.514.939,1.027,1.408,1.541,2.451-2.219,4.902-4.438,7.353-6.657Z"/><path d="m66.812,68.053c6.269-4.333,7.287-5.85,8.067-12.025-4.791,4.373-6.935,7.569-8.067,12.025Z" fill="#fff"/><path d="m47.089,44.699c2.451-2.219,4.902-4.438,7.353-6.657-4.972-.624-6.308,2.895-8.761,5.117.469.514.939,1.027,1.408,1.541Z" fill="#fff"/><path d="m75.779,73.229l-1.855-4.331c-.461.326-.922.652-1.383.977,1.132,1.07,2.265,2.139,3.397,3.209,0,0-.159.144-.159.144Z" fill="#fff"/><path d="m79.3,69.686c-.637-1.51-1.274-3.02-2.062-4.891-1.729,3.304.008,4.168,2.263,4.724l-.201.167Z" fill="#fff"/><path d="m79.466,62.908c-.028-1.238-.056-2.477-.084-3.715-1.907,1.282-2.614,2.537.084,3.715Z" fill="#fff"/><path d="m50.353,64.375s-.512-.15-1.54-.99c-2.971-2.429-7.109-12.097-12.656-16.994-.327-.289-.419-.727-.536-1.28-.055-.26-.116-.554-.213-.874l-.073-.24,13.655-12.599.182.02c5.188.578,8.982,3.8,10.697,9.081.939.536,1.403.699,1.78.831.576.202.739.554,1.684,1.376h0c-.872-.76-1.476-.456-1.948-.622-.404-.141-.957-.335-2.05-.971l-.134-.078-.046-.148c-1.572-4.986-5.08-8.053-9.891-8.654l-13.02,12.014c.067.251.116.486.161.699.083.392.154.731.283.845,5.642,4.981,10.669,13.535,12.816,17.188.414.704.843,1.382.85,1.396h0Z" fill="#fff"/></g></svg>