<?xml version="1.0" encoding="UTF-8"?><svg id="a" xmlns="http://www.w3.org/2000/svg" viewBox="0 0 105.819 105.821"><circle cx="52.91" cy="52.911" r="50.41" fill="#fff" stroke="#231f20" stroke-miterlimit="10" stroke-width="5"/><g><path d="m29.829,77.668c-1.377-3.398-1.248-6.329-.329-9.396.473-1.577.555-3.429.252-5.053-1.125-6.028-2.205-12.051-2.172-18.207.017-3.286.174-6.572.272-10.041h18.834v4.282c-5.033.121-9.887.238-14.741.355-.031.213-.063.427-.094.64.653.224,1.307.642,1.959.64,2.926-.01,5.852-.147,8.779-.221,1.037-.026,2.075-.004,3.379-.004.359,3.707-.572,7.201-.871,10.725-.247,2.913-.881,5.804-.971,8.717-.139,4.516,2.169,7.848,5.792,10.337,1.185.814,2.434,1.533,3.727,2.342-.951,1.528-1.804,2.898-2.657,4.268.217.163.435.327.652.49,1.372-1.484,2.744-2.969,4.033-4.363,4.901.421,6.04,2.375,4.401,7.444-6.543,2.582-13.095,2.743-19.613-.401-1.889-.911-3.659-1.801-6.026-1.303-1.363.287-3.01-.773-4.607-1.249Zm28.479,1.889c-1.079.263-2.158.526-3.236.789-4.39.257-8.751.292-12.871-1.621-.212-.099-.521.011-.785.023-.985-.77-1.862-1.918-2.976-2.233-2.556-.723-5.227-1.041-7.876-1.528,1.317,2.45,2.022,2.705,5.401,2.127,1.99.561,3.753,1.059,5.517,1.557,4.216,2.953,8.782,2.887,13.493,1.559,1.08-.254,2.161-.509,3.241-.763.222-.091.444-.181.183-.075.106-.192.007-.013-.091.165Z"/><path d="m63.777,74.768c-2.649-1.372-5.298-2.744-7.947-4.117,0,0,.09.114.09.114-.308-.311-.615-.622-.923-.934l.135.132c-.311-.312-.623-.624-.934-.937l.133.134-.939-.938.142.145c-.316-.312-.632-.625-.948-.937l.138.151c-.578-.852-1.155-1.704-1.733-2.556l.128.161c-.247-2.077-.943-3.793-3.338-4.136,0,0,.14.124.14.124-.745-1.071-1.489-2.143-2.318-3.336.246-1.884.503-3.85.788-6.031,2.494-1.825,3.51-4.726,4.617-7.578,3.377-8.707,7.109-15.238,12.058-20.979,2.502,1.573,5.065,3.178,7.622,4.793,2.46,1.554,4.914,3.117,7.552,4.792-.738,1.202-1.349,2.197-2.154,3.508-4.238-2.482-8.376-4.905-12.515-7.329.973,2.325,3.02,3.198,4.806,4.368,1.881,1.232,3.845,2.339,6.177,3.745-1.36,1.887-2.591,3.713-3.943,5.443-2.131,2.726-4.303,5.421-6.53,8.069-3.532,4.198-3.511,8.691-1.257,13.408.458.959.956,1.9,1.534,3.045-1.455.71-2.9,1.416-4.345,2.121.083.235.166.47.248.705,1.853-.484,3.705-.967,5.524-1.442,3.668,2.952,3.641,4.858-.297,8.47-1.177-.413-2.485-.873-3.792-1.332.038-.236.076-.472.115-.708.689-.085,1.378-.17,2.067-.255.384.212.768.425,1.152.637.053-.144.107-.287.16-.431-.47-.031-.94-.062-1.411-.092Z"/><path d="m55.83,70.652c-.219.296-.437.592-.786,1.064-2.44-.937-3.67-3.019-4.999-4.945-1.256-1.82-2.262-3.836-5.409-5.161,1.725-.228,2.506-.331,3.287-.434l-.14-.124c1.113,1.379,2.225,2.757,3.338,4.136l-.128-.161c.578.852,1.155,1.704,1.733,2.556,0,0-.138-.151-.138-.151.316.312.632.625.948.937,0,0-.142-.145-.142-.145l.939.938-.133-.134c.311.312.623.624.934.937l-.135-.132c.308.311.615.622.923.934l-.09-.114Z"/><path d="m41.482,78.67c-1.764-.498-3.528-.995-5.517-1.557-3.379.578-4.084.323-5.401-2.127,2.649.487,5.32.804,7.876,1.528,1.113.315,1.991,1.464,2.976,2.233l.067-.077Z" fill="#fff"/><path d="m41.415,78.747c.264-.012.573-.122.785-.023,4.121,1.914,8.481,1.878,12.871,1.621l-.097-.116c-4.711,1.328-9.276,1.393-13.493-1.559l-.067.077Z" fill="#fff"/><path d="m55.072,80.346c1.079-.263,2.158-.526,3.236-.789l-.093-.09c-1.08.254-2.161.509-3.241.763l.097.116Z" fill="#fff"/><path d="m58.308,79.556c.098-.178.196-.356.091-.165.261-.106.039-.016-.183.075l.093.09Z" fill="#fff"/><path d="m51.12,65.187c-1.113-1.379-2.225-2.757-3.338-4.136,2.396.343,3.091,2.058,3.338,4.136Z" fill="#fff"/><path d="m52.725,67.582c-.578-.852-1.155-1.704-1.733-2.556.578.852,1.155,1.704,1.733,2.556Z" fill="#fff"/><path d="m63.777,74.768c.47.031.94.062,1.411.092-.053.144-.107.287-.16.431-.384-.212-.768-.425-1.152-.637,0,0-.099.114-.099.114Z" fill="#fff"/><path d="m53.535,68.368c-.316-.312-.632-.625-.948-.937.316.312.632.625.948.937Z" fill="#fff"/><path d="m55.92,70.765c-.308-.311-.615-.622-.923-.934.308.311.615.622.923.934Z" fill="#fff"/><path d="m55.132,69.964c-.311-.312-.623-.624-.934-.937.311.312.623.624.934.937Z" fill="#fff"/><path d="m54.331,69.161l-.939-.938.939.938Z" fill="#fff"/></g></svg>