<?xml version="1.0" encoding="UTF-8"?><svg id="a" xmlns="http://www.w3.org/2000/svg" viewBox="0 0 105.819 105.821"><circle cx="52.91" cy="52.911" r="50.41" fill="#fff" stroke="#231f20" stroke-miterlimit="10" stroke-width="5"/><g><path d="m53.565,78.142c.058-.997.101-1.747.151-2.608,2.565-.885,5.886.608,7.62-2.418.604-1.055,1.607-2.159.348-3.868-.681,1.352-1.243,2.469-1.818,3.611-.489.265-.931.568-1.418.753-.488.185-1.02.354-1.533.357-4.614.027-9.228.016-14.021.016-4.295-2.54-5.105-7.088-5.807-11.538-.692-4.387-1.047-8.864,2.706-11.918.688-14.433,9.228-20.462,16.934-22.312,8.484-2.037,17.96,1.848,22.851,9.454,5.113,7.952,3.964,17.512-3.378,27.372.297,4.189.603,8.513.927,13.099h-23.561Zm-10.818-5.763c3.347.906,6.22.94,8.93-.065,1.667-1.348,3.239-2.577,4.765-3.861,3.054-2.569,6.184-5.059,9.087-7.79,1.997-1.878,2.151-4.144.918-6.168-1.372-2.253-3.533-3.114-6.162-2.404-.896.242-1.745.665-2.646.881-5.84,1.398-11.677,2.499-17.545-.889-.775,1.453-1.515,2.839-2.155,4.038.645,5.888.323,11.794,4.807,16.258Z"/><path d="m33.328,58.391v2.344c-.863-.441-1.365-.698-2.167-1.109.582-.644.958-1.059,1.334-1.475.278.08.555.16.833.239Z"/><path d="m26.273,65.263c-.87,1.254-1.239,1.786-1.725,2.485-.504-.606-.815-.979-1.441-1.731,1.005-.239,1.676-.399,3.166-.754Z"/><path d="m33.337,70.428c.147.528.383.99.36,1.439-.014.267-.435.514-.678.776q-1.068-1.162.318-2.215Z"/><path d="m27.074,59.937c-.2.116-.401.231-.601.347-.11-.293-.219-.586-.329-.879.227-.052.528-.215.663-.126.163.108.185.429.267.659Z"/><path d="m36.322,69.826c-.086-.32-.171-.639-.257-.959.176-.037.351-.074.527-.112.052.328.103.655.155.983l-.425.088Z"/><path d="m26.68,70.376h1.154v.364h-1.154v-.364Z"/><path d="m31.474,64.809h.277c-.05.184-.1.369-.15.553-.089-.095-.212-.177-.255-.289-.025-.063.081-.177.128-.264Z"/><path d="m42.747,72.379c-4.484-4.463-4.162-10.37-4.807-16.258.639-1.198,1.379-2.585,2.155-4.038,5.868,3.388,11.705,2.287,17.545.889.901-.216,1.75-.639,2.646-.881,2.63-.71,4.79.151,6.162,2.404,1.233,2.024,1.079,4.29-.918,6.168-2.904,2.73-6.034,5.221-9.087,7.79-1.526,1.284-3.098,2.514-4.765,3.861-2.71,1.005-5.583.97-8.93.065Zm12.515-17.143c-.156,3.88-.95,7.565,2.143,10.809,2.862-2.47,5.559-4.798,7.987-6.894.455-5.1-1.434-6.789-5.631-5.516-1.387.421-2.736.969-4.499,1.601Z" fill="#fff"/><path d="m55.262,55.236c1.763-.632,3.112-1.18,4.499-1.601,4.197-1.273,6.086.416,5.631,5.516-2.428,2.096-5.125,4.424-7.987,6.894-3.093-3.245-2.299-6.929-2.143-10.809Z"/></g></svg>