<?xml version="1.0" encoding="UTF-8"?><svg id="a" xmlns="http://www.w3.org/2000/svg" viewBox="0 0 105.819 105.821"><circle cx="52.91" cy="52.911" r="50.41" fill="#fff" stroke="#231f20" stroke-miterlimit="10" stroke-width="5"/><g><path d="m79.132,54.939c-.666,1.508-1.444,3.017-2.011,4.602-1.933,5.398-6.616,8.09-12.715,7.063-1.415-.238-2.803-1.429-3.918-2.483-2.016-1.905-3.816-4.038-5.311-5.65-2.629-.923-4.249-.347-5.623,1.211-1.144,1.297-2.354,2.535-3.515,3.816-4.593,5.07-12.674,4.208-16.134-1.741-.399-.686-.687-1.436-1.034-2.153-.789-1.635-1.583-3.267-2.294-4.734-1.242-.237-2.132-.408-3.251-.621v-5.364c.916-.211,1.896-.437,3.157-.727,1.336-1.791,2.807-3.77,4.286-5.744,2.138-2.853,5.077-3.728,8.472-3.317,9.28,1.125,18.549,1.085,27.833-.012,3.219-.38,6.064.573,8.11,3.272,1.492,1.968,2.951,3.962,4.326,5.811,1.1.226,1.977.406,2.981.612v5.324c-.999.248-1.878.466-3.361.833Zm-18.665,6.357s-.129-.134-.129-.134c.937,1.36,1.875,2.719,2.589,3.755,5.313.678,7.264.43,9.413-1.049,5.33-3.668,5.606-12.885.291-16.561-1.654-1.144-3.882-1.653-5.925-2.002-7.116-1.218-14.312-1.05-21.483-.683-3.032.155-6.044.804-9.052,1.303-1.923.319-3.479,1.379-4.594,2.941-2.637,3.697-2.816,7.615-.801,11.653,1.833,3.674,4.957,4.98,8.878,4.791.922-.044,1.843-.122,3.456-.231.644-.788,1.54-1.943,2.499-3.043,1.049-1.202,2.099-2.413,3.25-3.515,2.85-2.73,5.479-2.673,8.38.036,1.03.962,2.15,1.829,3.229,2.739Zm-35.58-8.233c1.968-.807,2.438-1.801,1.094-2.931-.202-.17-.71.025-1.391.073.107,1.025.202,1.941.298,2.858Zm55.918-2.969c-1.722,1.138-1.662,2.116,0,3.457v-3.457Z"/><path d="m60.467,61.296c-1.079-.91-2.198-1.777-3.229-2.739-2.901-2.709-5.53-2.766-8.38-.036-1.15,1.102-2.201,2.313-3.25,3.515-.959,1.099-1.855,2.254-2.499,3.043-1.613.109-2.533.187-3.456.231-3.92.189-7.045-1.118-8.878-4.791-2.015-4.037-1.835-7.955.801-11.653,1.114-1.563,2.671-2.622,4.594-2.941,3.009-.499,6.02-1.148,9.052-1.303,7.171-.367,14.367-.535,21.483.683,2.042.349,4.271.858,5.925,2.002,5.315,3.676,5.039,12.894-.291,16.561-2.149,1.479-4.1,1.726-9.413,1.049-.714-1.036-1.652-2.396-2.589-3.755.72.516,1.403,1.096,2.169,1.531,1.011.575,2.043,1.335,3.142,1.496,4.812.704,8.371-2.195,9.362-7.077.926-4.562-1.33-9.491-6.264-10.299-4.604-.754-9.177-1.34-13.859-.65-1.542.227-3.166-.123-4.754-.179-.903-.032-1.808-.006-2.886-.006-3.334,5.895-6.65,11.757-10.204,18.04h5.026c2.227-2.328,4.281-4.598,6.471-6.729,2.065-2.009,5.032-2.521,7.322-1.145,2.015,1.212,3.964,2.639,4.605,5.152Zm-18.15-15.181c-4.447.472-8.444.452-10.641,4.68-1.773,3.413-1.131,7.696,1.799,10.973,2.882-5.103,5.717-10.122,8.842-15.653Zm3.161-.443c-2.842,2.214-9.926,14.584-10.379,17.506,2.082-1.763,6.744-9.543,10.379-17.506Z" fill="#fff"/><path d="m24.887,53.063c-.096-.917-.191-1.833-.298-2.858.682-.048,1.19-.243,1.391-.073,1.344,1.129.874,2.124-1.094,2.931Z" fill="#fff"/><path d="m80.805,50.094v3.457c-1.662-1.341-1.722-2.319,0-3.457Z" fill="#fff"/><path d="m60.467,61.296c-.641-2.512-2.589-3.94-4.605-5.152-2.29-1.376-5.257-.864-7.322,1.145-2.19,2.13-4.244,4.401-6.471,6.729h-5.026c3.554-6.283,6.87-12.146,10.204-18.04,1.078,0,1.983-.027,2.886.006,1.588.057,3.212.407,4.754.179,4.682-.689,9.255-.104,13.859.65,4.934.808,7.19,5.737,6.264,10.299-.991,4.882-4.549,7.781-9.362,7.077-1.099-.161-2.131-.921-3.142-1.496-.766-.436-1.449-1.016-2.169-1.531l.129.134Z"/><path d="m42.317,46.115c-3.125,5.532-5.959,10.55-8.842,15.653-2.931-3.278-3.573-7.56-1.799-10.973,2.197-4.228,6.194-4.208,10.641-4.68Z"/><path d="m45.478,45.672c-3.634,7.963-8.297,15.743-10.379,17.506.452-2.922,7.537-15.291,10.379-17.506Z"/></g></svg>