<?xml version="1.0" encoding="UTF-8"?><svg id="a" xmlns="http://www.w3.org/2000/svg" viewBox="0 0 105.819 105.821"><circle cx="52.91" cy="52.911" r="50.41" fill="#fff" stroke="#231f20" stroke-miterlimit="10" stroke-width="5"/><path d="m34.087,41.023c3.679.663,8.16,1.16,12.456,2.33,4.336,1.181,8.463,1.345,12.749-.01,7.962-2.517,16.054-2.492,24.189-.914,3.085.599,4.594,2.93,2.727,5.193-2.09,2.533-2.388,5.402-3.133,8.242-1.663,6.335-4.352,8.574-10.865,8.896-8.216.407-12.493-2.512-15.611-10.387-.741-1.872-.575-4.799-3.403-4.964-3.235-.189-3.232,2.903-3.916,4.955-3.337,10.005-10.995,11.543-19.554,9.808-3.576-.725-5.615-3.362-6.628-6.799-1.016-3.445-1.127-7.091-3.645-10.163-1.571-1.917-.165-4.252,2.421-4.665,3.771-.602,7.581-.96,12.212-1.524Zm-7.79,11.603c.68-1.373,1.073-2.922,2.038-3.917,1.104-1.138,2.728-1.765,4.096-2.661.241-.158.334-.541.495-.82-.285-.104-.569-.296-.855-.299-4.815-.06-6.704,2.429-5.774,7.697Zm33.755.657q1.638-3.992,5.725-6.985c.236-.173.414-.424.619-.638-.367-.191-.742-.563-1.099-.546-4.358.209-5.715,2.126-5.245,8.169Zm23.541-8.21c-.275.112-.55.224-.825.336.234.265.426.617.719.757.146.07.478-.251.726-.395-.206-.233-.412-.465-.62-.698Zm-60.432.734c-.238-.178-.468-.485-.715-.5-.248-.015-.514.261-.772.409.234.168.461.46.703.472.254.013.522-.242.784-.381Z"/></svg>