<?xml version="1.0" encoding="UTF-8"?><svg id="a" xmlns="http://www.w3.org/2000/svg" viewBox="0 0 131.742 55.74"><polygon points="117.061 45.087 13.061 45.087 0 0 4 0 17.061 41.087 113.061 41.087 127.742 0 131.742 0 117.061 45.087" fill="#231f20"/><g><path d="m18.649,31.402l1.004-1.018,5.839,3.521-1.391-4.384.749-.759,4.364,1.54-3.532-6.063,1.003-1.018,5.048,8.176-1.259,1.276-4.383-1.992,1.951,4.457-1.343,1.362-8.051-5.1Z" fill="#8dc63f" stroke="#231f20" stroke-miterlimit="10" stroke-width=".5"/><path d="m33.963,23.714c-1.61-2.805-.914-4.904,1.298-6.175,2.213-1.271,4.369-.962,5.979,1.995,1.538,2.832,1.514,4.711-1.234,6.264-2.519,1.422-4.438.71-6.042-2.084Zm6.211-3.429c-.942-1.641-2.87-2.766-4.415-1.878s-1.553,3.124-.611,4.765c.931,1.621,2.156,1.501,3.701.614,1.545-.888,2.256-1.88,1.325-3.501Z" fill="#8dc63f" stroke="#231f20" stroke-miterlimit="10" stroke-width=".5"/><path d="m52.027,17.809l1.464,2.418-2.137.645-.641-2.506c-.321-1.293-1.62-.993-2.301-.662l-.586.304,1.285,3.54-1.863.562-2.151-9.079,2.116-.638c1.748-.527,3.014-.024,3.521,1.66.346,1.147.029,1.887-.744,2.257.6.198,1.237.179,2.037,1.5Zm-5.88-4.039l.796,2.643,1.474-.444c.895-.27,1.521-1.125,1.369-1.63-.343-1.138-1.271-1.282-2.166-1.013l-1.474.444Z" fill="#8dc63f" stroke="#231f20" stroke-miterlimit="10" stroke-width=".5"/><path d="m57.742,10.061l1.097-.082.162,4.356,2.252-4.538,1.58-.118-2.642,5.218,4.516,4.008-2.885.217-2.718-3.426.128,3.62-1.591.12.102-9.375Z" fill="#8dc63f" stroke="#231f20" stroke-miterlimit="10" stroke-width=".5"/><path d="m76.397,12.139c-.612-.15-.609-.384-1.841-.485-1.321-.104-2.364.092-2.586,1.027-.186.772.451.972,1.493,1.366l.696.252c1.792.655,3.346,1.92,3.121,3.378-.228,1.479-1.877,2.495-4.76,2.05-1.588-.245-2.746-.323-3.667-1.212l1.6-1.635c.412.431,2.109.692,2.784.797.62.096,1.463.259,1.625-.641.1-.575-.213-1.002-1.278-1.389l-.707-.254c-1.75-.638-2.4-1.484-2.19-2.845.245-1.588,1.31-2.638,3.572-2.289.468.072,1.765.328,2.521.623l-.383,1.256Z" fill="#8dc63f" stroke="#231f20" stroke-miterlimit="10" stroke-width=".5"/><path d="m86.454,23.712l.976-2.108-3.587-1.518-.824,2.172-1.742-.737,3.864-8.482,1.186.501-1.749,4.612,3.718,1.573,2.063-4.479,1.195.506-3.277,8.731-1.824-.771Z" fill="#8dc63f" stroke="#231f20" stroke-miterlimit="10" stroke-width=".5"/><path d="m94.708,22.802c1.942-2.584,4.146-2.771,6.186-1.237s2.604,3.636.521,6.279c-1.997,2.528-3.733,3.246-6.242,1.332-2.298-1.755-2.399-3.799-.464-6.374Zm5.596,4.358c1.137-1.512,1.412-3.726-.012-4.796s-3.483-.197-4.62,1.314c-1.123,1.494-.53,2.572.894,3.643s2.615,1.333,3.738-.161Z" fill="#8dc63f" stroke="#231f20" stroke-miterlimit="10" stroke-width=".5"/><path d="m108.897,28.737l1.493,1.763c1.479,1.746,1.168,3.234.346,3.931-1.46,1.237-2.661,1.029-4.059-.468l-1.012-1.075-3.051,2.917-1.194-1.41,7.476-5.657Zm-1.068,4.423c.753.804,1.192,1.152,2.216.285.486-.413.345-1.346-.416-2.243l-.868-1.024-2.073,1.757,1.14,1.226Z" fill="#8dc63f" stroke="#231f20" stroke-miterlimit="10" stroke-width=".5"/></g><g><path d="m71.561,39.809c.407.97.957,1.829,1.615,2.577l-28.897,12.121c-1.524.639-3.289-.083-3.928-1.606-.321-.765-.299-1.586-.004-2.294.286-.712.852-1.315,1.611-1.634l28.897-12.121c.073.993.3,1.988.707,2.958Z" fill="#fff" stroke="#231f20" stroke-miterlimit="10" stroke-width="2"/><path d="m89.412,34.215c.933,4.333-1.312,8.85-5.546,10.626-3.818,1.602-8.1.494-10.69-2.456-.657-.748-1.208-1.607-1.615-2.577s-.634-1.964-.707-2.958c-.289-3.915,1.921-7.746,5.739-9.347,3.389-1.422,7.137-.698,9.744,1.543l-4.168,2.721c-.844.551-1.089,1.693-.538,2.536l1.275,1.959c.551.844,1.693,1.089,2.536.538l3.968-2.586Z" fill="#fff" stroke="#231f20" stroke-miterlimit="10" stroke-width="2"/></g></svg>