<?xml version="1.0" encoding="UTF-8"?><svg id="a" xmlns="http://www.w3.org/2000/svg" viewBox="0 0 308.632 308.632"><rect x="53.198" y="53.199" width="202.237" height="202.235" transform="translate(154.316 -63.92) rotate(45)" fill="#fff" stroke="red" stroke-miterlimit="10" stroke-width="16"/><g><path d="m176.079,97.617c-3.164,21.159-6.096,40.758-9.023,60.359-.591,3.954-1.137,7.915-1.751,11.865-.906,5.827-5.207,9.825-10.686,9.989-5.562.167-10.175-3.575-11.08-9.442-3.631-23.532-7.169-47.078-10.68-70.628-.767-5.142,2.274-8.504,5.964-11.332,8.321-6.377,25.696-5.517,33.071,1.944,2.149,2.175,3.184,5.451,4.186,7.245Z"/><path d="m154.37,189.574c8.916.046,16.356,7.869,16.451,17.299.098,9.682-7.424,17.661-16.596,17.601-9.113-.059-16.589-8.143-16.412-17.748.174-9.41,7.691-17.199,16.556-17.153Z"/></g></svg>