<?xml version="1.0" encoding="UTF-8"?><svg id="a" xmlns="http://www.w3.org/2000/svg" viewBox="0 0 308.632 308.632"><rect x="53.198" y="53.199" width="202.237" height="202.235" transform="translate(154.316 -63.92) rotate(45)" fill="#fff" stroke="red" stroke-miterlimit="10" stroke-width="16"/><g><path d="m237.795,134.871c-2.926,7.427-4.696,15.113-10.198,20.755-.532-.235-1.065-.47-1.597-.704,1.298-3.277,2.575-6.562,3.901-9.828.788-1.941,2.02-3.782,2.403-5.791.748-3.928,2.677-5.621,5.491-4.431Z"/><path d="m202.294,138.352c1.559,4.869,3.164,9.755,4.656,14.675.237.782-.034,1.719-.07,2.584-.948-.374-2.241-.488-2.763-1.182-.75-.997-.889-2.437-1.378-3.651-.682-1.693-1.171-3.557-2.233-4.983-2.202-2.959-1.52-5.907,1.787-7.442Z"/><path d="m227.096,135.481c.522,1.909,1.784,3.976,1.416,5.694-.808,3.767-2.281,7.428-3.842,10.974-.427.97-2.128,1.379-3.245,2.045.086-1.13-.004-2.308.288-3.382,1.325-4.863,2.758-9.696,4.153-14.54.41-.264.82-.527,1.23-.791Z"/><path d="m205.577,166.74c-2.535-.214-5.071-.428-7.606-.642.037-.536.073-1.072.11-1.607,2.548.134,5.095.268,7.643.402-.049.616-.098,1.231-.147,1.847Z" fill="#fff"/><g><path d="m145.003,171.866v14.762H63.299v-14.746c10.358,0,20.474-.042,30.589.065,1.011.011,2.123.786,2.999,1.454,4.692,3.579,11.243,3.712,16.273.628,1.844-1.131,4.16-2.008,6.288-2.068,8.308-.235,16.626-.096,25.557-.096Z"/><path d="m210.783,171.745c2.281,1.435,4.582,2.84,6.834,4.32.861.566,1.609,1.304,2.408,1.964-1.083.328-2.259,1.107-3.231.904-3.881-.81-7.256-2.434-8.557-6.699-.259-.849-1.025-2.19-1.584-2.203-6.488-.155-12.981-.099-19.472-.099-.021.673-.041,1.346-.062,2.019,3.47,0,6.951-.162,10.404.074,1.551.106,3.048,1.007,4.569,1.548-1.459.626-2.896,1.721-4.382,1.793-4.821.233-9.661.053-14.492.126-1.039.016-2.071.426-3.106.655-.017.621-.034,1.242-.051,1.862,7.348.175,14.696.351,22.044.526-.004.768-.007,1.537-.011,2.306h-15.093c-.043.631-.086,1.262-.129,1.893,6.048,3.033,13.607-1.267,19.492,2.556-.025.55-.05,1.1-.075,1.649h-13.635c-.01.793-.02,1.586-.029,2.379,7.79.164,15.644,1.015,23.351.296,7.454-.695,14.758-3.008,22.127-4.61.192.664.384,1.328.577,1.992-4.156,1.478-8.239,3.927-12.481,4.243-10.909.812-21.889.813-32.839.77-1.544-.006-3.149-1.988-4.604-3.201-3.072-2.559-6.123-5.151-9.062-7.859-1.245-1.148-3.115-2.686-3.033-3.936.105-1.589,1.777-3.181,3.011-4.558,1.198-1.337,2.538-2.715,4.101-3.52,2.534-1.304,5.301-2.154,8.657-3.463,1.782-4.042,7.656-5.666,13.186-3.799,3.247,1.096,7.022.637,10.561.851,2.296.139,4.688-.138,6.873.419,4.251,1.083,8.406,2.563,12.555,4.008,1.057.368,1.944,1.223,2.909,1.854-1.091.449-2.315,1.469-3.248,1.249-4.12-.967-8.15-2.311-12.224-3.478-1.928-.552-3.882-1.015-6.101-.415.591.487,1.182.973,2.161,1.78-2.801.77-5.247,1.443-7.692,2.116-.208.564-.417,1.127-.625,1.691Zm-5.206-5.005c.049-.616.098-1.231.147-1.847-2.548-.134-5.095-.268-7.643-.402-.037.536-.073,1.072-.11,1.607,2.535.214,5.071.428,7.606.642Z"/><path d="m212.431,133.059c-8.229-1.437-16.535-2.91-24.85-4.333-6.23-1.066-12.472-2.059-18.705-3.104-5.31-.89-8.502-4.213-8.11-8.401.413-4.415,3.894-7.437,9.348-6.876,7.758.798,15.447,2.299,23.148,3.6,5.243.886,10.431,2.142,15.695,2.848,3.084.414,6.27.076,9.76.076-.32,2.743-.925,6.007-1.02,9.287-.098,3.4.698,6.85.396,10.215-.579,6.452-.703,12.835.011,19.29.116,1.049-2.182,2.365-3.364,3.557-.986-1.214-2.393-2.293-2.834-3.68-.409-1.284.052-2.938.418-4.355.86-3.33,2.011-6.362-.076-9.958-1.026-1.768.025-4.742.182-8.165Zm-16.166-8.506c-.002.022-.003.044-.005.066,4.816.335,9.632.857,14.449.879,1.282.006,2.572-1.524,3.858-2.349-1.123-1.034-2.118-2.759-3.39-2.996-12.597-2.35-25.229-4.518-37.88-6.56-2.038-.329-4.444-.288-6.255.527-1.319.593-2.603,2.72-2.65,4.202-.034,1.08,1.796,2.583,3.121,3.244,1.423.71,3.216.767,4.865.917,7.959.726,15.923,1.387,23.886,2.071Z"/><path d="m102.453,117.335c4.038,0,7.863.472,11.528-.091,10.023-1.54,19.969-3.571,29.968-5.279,2.27-.388,4.675-.599,6.935-.287,3.515.484,6.324,2.242,6.78,6.199.446,3.871-1.527,6.49-4.991,7.698-2.799.976-5.795,1.432-8.733,1.953-10.316,1.83-20.64,3.617-30.971,5.356-3.332.561-5.666,1.176-4.121,5.715.689,2.025-1.06,4.784-1.301,7.249-.258,2.65-.116,5.348-.015,8.02.087,2.282.723,4.609.397,6.81-.153,1.036-2.009,2.543-3.064,2.52-1.038-.023-2.544-1.545-2.93-2.712-.488-1.472-.343-3.324.047-4.883,1.105-4.418,3.588-8.708.578-13.311-.232-.355-.259-1.092-.045-1.454,4.602-7.787.744-15.522-.077-23.274-.048-.456.111-.934.017-.229Zm5.433,9.581c13.358-1.147,26.882-2.291,40.402-3.482,3.195-.281,6.45-1.36,5.983-5.136-.494-3.997-4.162-3.716-7.145-3.249-12.123,1.898-24.215,3.992-36.339,5.885-3.668.573-5.119,2.009-2.901,5.983Z"/><path d="m108.511,170.173c1.78-6.141,3.465-11.957,5.684-19.613,1.308,3.562,2.211,6.024,3.436,9.361.37-2.578.306-4.752,1.053-6.598.725-1.791,2.284-3.243,3.477-4.844.431.196.862.392,1.293.588-.85,3.884-1.394,7.871-2.658,11.615-.822,2.436-2.841,4.442-4.056,6.78-1.818,3.499-4.616,3.39-8.231,2.712Zm5.877-8.46c-.305.612-.61,1.224-.914,1.836.273.077.546.155.818.232,0-.74,0-1.48-.005-2.211l.163.101s-.062.041-.062.041Z"/><path d="m91.431,158.559c.782-1.274,1.76-2.867,3.134-5.106,2.178,6.997,4.004,12.864,5.829,18.73-4.664-1.367-7.087-3.577-9.483-7.368-2.506-3.965-2.947-8.354-5.205-12.124-.402-.671-.208-1.699-.289-2.562.967.276,2.476.264,2.803.88,1.259,2.368,2.14,4.937,3.211,7.549Z"/><path d="m192.856,136.621c1.242,1.18,2.968,2.136,3.639,3.581,2.325,5.003,4.312,10.166,6.347,15.3.258.652.035,1.495.035,2.249-.444.224-.889.447-1.333.671-1.975-3.15-4.274-6.15-5.835-9.493-1.603-3.432-2.485-7.2-3.682-10.821.276-.496.553-.991.829-1.487Z"/><path d="m114.292,161.563v2.22c-.273-.077-.546-.155-.818-.232.305-.612.61-1.224.914-1.836,0,0-.096-.151-.096-.151Z" fill="#fff"/><path d="m114.388,161.714l.062-.041s-.163-.101-.161-.106c.002-.005.098.147.098.147Z" fill="#fff"/></g></g></svg>