<?xml version="1.0" encoding="UTF-8"?><svg id="a" xmlns="http://www.w3.org/2000/svg" viewBox="0 0 308.632 308.632"><rect x="53.198" y="53.199" width="202.237" height="202.235" transform="translate(154.316 -63.92) rotate(45)" fill="#fff" stroke="red" stroke-miterlimit="10" stroke-width="16"/><path d="m156.579,177.926c-5.779.731-11.705.916-17.278,2.415-2.975.8-5.341,3.869-8.51,6.323-5.364-8.437-14.209-2.3-23.154-3.901,4.565-2.776,8.183-4.83,11.624-7.146,1.246-.839,2.883-2.265,2.946-3.495.307-5.934.138-11.893.138-18.566h-28.747l-.028-1.609h29.249c0-4.005.217-7.158-.111-10.252-.125-1.176-1.269-2.611-2.35-3.255-4.576-2.729-9.151-5.559-14.031-7.636-2.816-1.199-6.213-1.034-10.09-2.385,3.888-2.161,7.694-5.838,11.688-6.057,3.998-.219,8.186,3.018,13.483,3.977-1.837-3.119-3.164-6.743-5.632-9.238-3.715-3.756-8.33-6.605-12.35-10.084-1.498-1.296-2.401-3.281-3.576-4.951.415-.38.83-.76,1.245-1.139,5.342,3.147,10.684,6.294,16.026,9.441.552-.253,1.105-.506,1.657-.76-1.342-4.567-2.409-9.239-4.116-13.665-1.246-3.23-3.429-6.088-4.981-9.217-.394-.793.026-1.99.071-3.001.927.413,2.209.571,2.719,1.283,2.195,3.063,4.163,6.288,6.301,9.589,1.653-3.041,2.998-5.516,4.638-8.534.673,8.121.719,15.071,1.958,21.801,1.223,6.647,3.653,13.071,5.705,20.114,4.939-5.457,8.811-10.524,7.661-18.277-1.014-6.836-.938-13.833-.614-20.906,4.934,4.022,2.534,10.427,5.318,15.715,4.375-5.004,8.561-9.792,12.747-14.58l1.106.632c-.518,1.371-.811,2.89-1.597,4.084-2.558,3.889-5.231,7.708-7.984,11.462-2.642,3.603-4.183,7.186-3.487,12.009.46,3.189-1.111,6.671-1.516,8.726,3.492-.869,7.692-1.386,11.418-2.997,3.501-1.513,6.645-4.002,9.674-6.406,2.153-1.709,3.853-3.989,6.389-5.455-5.431,6.599-6.2,16.377-16.344,19.958-4.592,1.621-7.892,7.317-11.363,11.507-1.586,1.914-2.17,4.659-3.752,8.266,5.378,0,9.137,0,12.896,0,5.166,0,10.339-.153,15.498.042,7.388.279,14.212-.336,20.818-4.747,3.811-2.545,9.295-2.585,14.026-3.752.305.482.61.964.915,1.446-.784,1.906-1.569,3.812-2.667,6.48,4.15-1.05,7.854-1.987,11.559-2.924,1.759,7.134-2.48,14.626-15.57,27.395,3.318,2.508,6.593,4.985,10.394,7.858-3.253,1.715-6.098,3.215-8.942,4.714-.014.33-.028.66-.042.989,4.204.418,8.408.835,13.084,1.299-1.077,2.154-1.918,3.837-2.969,5.941,2.6.185,4.842.345,7.516.535v7.458h-121.351c-.085-.541-.171-1.082-.256-1.623,5.681-1.253,11.351-3.443,17.048-3.518,6.822-.09,12.573-2.656,18.532-5.057,3.851-1.551,7.6-3.355,11.591-5.133-.735-1.108-1.435-2.162-1.545-2.328,6.007-2.965,11.777-5.814,17.547-8.663,1.453-1.292,3.131-2.405,4.322-3.905,4.846-6.101,9.551-12.314,14.278-18.509.331-.433.414-1.055.656-1.708h-36.138c0,3.422.319,6.577-.078,9.64-.545,4.209,1.378,6.342,4.929,7.989,4.036,1.873,7.873,4.175,11.797,6.291Zm-12.798,9.017c6.42,2.937,11.766,5.382,17.793,8.14,3.232-10.587,12.786-11.517,20.834-15.26,7.231-3.364,13.988-8.203,20.071-13.421,4.251-3.646,7.395-8.852,7.544-15.504-4.887,1.298-9.349,2.482-14.656,3.891,1.843-3.403,3.127-5.775,4.412-8.148-.266-.359-.532-.718-.798-1.077-2.976.825-6.076,1.353-8.906,2.53-10.125,4.211-17.097,12.191-22.704,21.083-5.447,8.638-12.543,14.481-23.591,17.767Z"/><path d="m143.781,186.942c11.048-3.286,18.145-9.129,23.591-17.767,5.607-8.892,12.579-16.873,22.704-21.083,2.83-1.177,5.93-1.704,8.906-2.53.266.359.532.718.798,1.077-1.285,2.373-2.57,4.746-4.412,8.148,5.307-1.409,9.769-2.593,14.656-3.891-.149,6.652-3.294,11.858-7.544,15.504-6.083,5.218-12.84,10.057-20.071,13.421-8.047,3.743-17.602,4.673-20.834,15.26-6.027-2.757-11.374-5.203-17.793-8.14Zm57.039-24.11c.934-1.14,1.48-1.807,2.027-2.474-.778-.631-1.491-1.599-2.358-1.765-.507-.097-1.876,1.238-1.771,1.659.21.847,1.163,1.509,2.103,2.581Z" fill="#fff"/><path d="m200.82,162.832c-.939-1.072-1.892-1.734-2.103-2.581-.105-.421,1.265-1.756,1.771-1.659.867.166,1.58,1.134,2.358,1.765-.546.667-1.093,1.334-2.027,2.474Z"/></svg>