<?xml version="1.0" encoding="UTF-8"?><svg id="a" xmlns="http://www.w3.org/2000/svg" viewBox="0 0 308.632 308.632"><rect x="53.198" y="53.199" width="202.237" height="202.235" transform="translate(154.316 -63.92) rotate(45)" fill="#fff" stroke="red" stroke-miterlimit="10" stroke-width="16"/><g><path d="m171.5,171.477c-.346-2.372-.194-4.279,3.077-3.326.01-.027.175-.227.175-.227l-.265.322c-3.163-1.152-6.281-2.475-9.525-3.317-.667-.173-2.013,1.3-2.685,2.266-4.566,6.568-11.383,9.626-18.404,8.12-7.037-1.509-12.034-6.821-13.741-15.091,2.521.524,4.934,1.659,7.092,1.291,2.068-.353,3.869-2.266,6.256-3.794,2.316,1.821,4.873,3.831,7.916,6.223,2.183-2.035,4.334-4.04,6.893-6.426-.679-.186-.22-.205-.067.002,6.747,9.1,17.23,7.487,26.522,9.224,3.102.58,6.338.553,9.372,1.342,1.35.351,2.353,2.036,3.513,3.116-.372.532-.745,1.065-1.117,1.597-3.668-.794-7.335-1.589-11.287-2.444v4.025c-2.91-.377-5.617-.729-8.325-1.08-.159.264-.319.528-.478.793,2.41,1.472,4.819,2.945,7.229,4.417-.318.445-.636.891-.955,1.337-3.725-2.776-7.45-5.552-11.177-8.326-.001.002-.019-.043-.019-.043Z"/><path d="m182.964,153.079c22.812-3.878,45.625-7.756,69.317-11.783-2.089,3.467-55.468,12.009-69.317,11.783Z"/><path d="m181.376,147.726c19.69-5.075,39.379-10.151,59.069-15.226l.611,2.485c-19.794,4.516-39.589,9.032-59.383,13.548-.099-.269-.198-.538-.296-.807Z"/><path d="m186.634,160.969c.303-1.362.149-3.152.944-3.836,4.601-3.952,5.681-3.804,14.844.795-2.08,4.497-2.139,4.544-6.715,4.067-2.71-.282-5.415-.61-9.073-1.026Z"/><path d="m225.808,115.304c.802,2.969,1.837,6.799,2.872,10.629-.458.204-.917.408-1.375.612-1.513-.92-3.026-1.84-3.28-1.994-3.237.229-5.197.368-7.157.507.298-1.773-.016-4.2,1.027-5.179,1.935-1.815,4.663-2.785,7.913-4.576Z"/><path d="m130.242,174.496c0,.654-.154,1.359.037,1.951.309.955,1.246,1.878,1.155,2.733-.066.619-1.569,1.729-2.087,1.56-8.365-2.723-11.087,5.15-16.176,8.506-1.764,1.163-3.375,2.558-5.055,3.847-.459-.629-.918-1.258-1.377-1.887,7.35-5.702,14.693-11.413,22.08-17.067.234-.179.92.232,1.396.368,0,0,.027-.011.027-.011Z"/><path d="m239.512,164.076c-10.236-.558-20.473-1.117-28.229-1.54h28.197c.011.513.021,1.026.032,1.54Z"/><path d="m119.015,160.555c-1.657,2.295-3.394,4.776-6.791,2.633-1.134-.715-1.64-2.427-2.432-3.683,2.951-.265,5.902-.529,8.854-.794.123.615.247,1.229.37,1.844Z"/><path d="m173.542,147.34c5.166-3.025,10.332-6.051,15.498-9.076.363.714.726,1.427,1.09,2.141-5.536,2.31-11.071,4.621-16.637,6.914-.03-.018.049.022.049.022Z"/><path d="m94.484,179.805c3.707.588,5.688.902,8.922,1.414-2.335,2.141-3.873,3.552-6.109,5.603-.937-2.337-1.682-4.196-2.812-7.017Z"/><path d="m90.048,167.294c-5.475,1.354-10.95,2.707-16.425,4.061l-.344-1.682c5.598-.794,11.196-1.587,16.795-2.381l-.025.002Z"/><path d="m93.745,165.096c4.357-5.76,5.655-.434,7.723,1.576-2.28-.465-4.561-.93-7.723-1.576Z"/><path d="m204.25,137.031c-1.916-.203-3.831-.406-6.602-.7.943-1.775,1.616-3.042,2.683-5.049,1.79,1.892,3.094,3.272,4.399,4.651-.16.366-.32.732-.48,1.099Z"/><path d="m99.832,172.622c-3.683.923-7.366,1.846-11.049,2.769-.101-.409-.202-.819-.302-1.229,3.714-.799,7.429-1.598,11.143-2.397.07.285.139.571.208.856Z"/><path d="m102.509,158.391h-13.491c.013-.302.027-.603.04-.905,4.532.21,9.064.42,13.595.63-.048.091-.096.183-.144.274Z"/><path d="m113.28,153.573c3.28.801,6.56,1.603,9.84,2.404-.057.282-.115.563-.172.845-3.319-.576-6.638-1.152-9.958-1.728.097-.507.193-1.014.29-1.521Z"/><path d="m176.808,179.835c3.025,1.819,6.051,3.639,9.076,5.458-.375.515-.75,1.029-1.126,1.544-2.622-2.366-5.244-4.732-7.866-7.098l-.085.096Z"/><path d="m125.777,167.719l-7.836,3.003c-.147-.403-.294-.806-.442-1.209,2.577-.879,5.154-1.757,7.732-2.636.182.281.364.561.546.842Z"/><path d="m113.691,176.85c-1.251.928-2.501,1.856-3.752,2.783-.189-.347-.378-.695-.568-1.042,1.483-.532,2.966-1.065,4.449-1.599,0-.002-.129-.142-.129-.142Z"/><path d="m174.703,179.742c.684,1.044,1.368,2.087,2.051,3.131l.101-.101c-1.328-1-2.656-1.999-3.984-2.999,0,0-.104.101-.104.101.709.008,1.419.016,2.128.024l-.192-.156Z"/><path d="m176.893,179.739c-.73,0-1.46.002-2.19.003,0,0,.192.156.192.156-.682-1.045-1.364-2.089-2.046-3.134l-.097.141c1.352.977,2.704,1.954,4.057,2.931,0,0,.085-.096.085-.096Z"/><path d="m170.909,176.884c-.733-.934-1.466-1.868-2.198-2.803,0,0-.096.144-.096.144,1.379.893,2.758,1.786,4.137,2.68,0,0,.098-.141.098-.141-.71-.003-1.42-.005-2.129-.007,0,0,.19.128.19.128Z"/><path d="m109.255,172.084c.802.143,1.604.286,2.406.429-.546.456-1.059.968-1.667,1.317-.111.064-.604-.536-.92-.829.06-.306.12-.611.181-.917Z"/><path d="m90.073,167.292h4.396c-.002.115-.003.229-.005.344-1.466-.113-2.932-.227-4.407-.341-.009-.001.016-.003.016-.003Z"/><path d="m168.642,177.444c.755-.187,1.511-.373,2.267-.56,0,0-.19-.128-.19-.128.682,1.039,1.365,2.078,2.048,3.117,0,0,.104-.101.104-.101-1.421-.815-2.842-1.63-4.263-2.445,0,0,.035.116.035.116Z"/><path d="m116.04,174.441c-.783.801-1.566,1.603-2.349,2.406,0,.002.129.142.129.144.743-.861,1.486-1.724,2.23-2.587,0,.001-.01.036-.01.036Z"/><path d="m104.742,171.457h-.805c.001-.099-.004-.284.005-.285.266-.022.533-.026.8-.033v.318Z"/><path d="m127.072,148.061c-.519.108-1.037.216-1.556.323-.025-.158-.05-.315-.075-.473.552.051,1.104.103,1.659.161.003.007-.028-.011-.028-.011Z"/><path d="m109.042,169.157c-.151.483-.302.966-.031.1-.571.739-.25.323.071-.092,0,0-.04-.008-.04-.008Z"/><polygon points="177.322 149.185 177.528 149.381 177.111 149.385 177.322 149.185"/><path d="m109.082,169.165c.637.037,1.273.074,1.91.112-.025.129-.05.258-.076.387-.614-.163-1.227-.325-1.858-.497-.017-.009.023-.001.023-.001Z"/><path d="m169.45,145.398c-.263-.081-.526-.163-.789-.244.275.053.55.106.825.162,0,.004-.036.082-.036.082Z"/><path d="m171.247,148.164c.747-.285,1.494-.571,2.268-.84.027.016-.053-.024-.023-.006-.761.294-1.552.571-2.343.847h.098Z"/><path d="m168.55,171.578c.982-.033,1.963-.065,2.948-.099.003-.002.021.043.022.041-.999.017-1.998.035-3.003.043-.004-.011.033.016.033.016Z"/><path d="m119.122,173.743c-1.027.233-2.054.465-3.082.698,0,0,.01-.035.01-.036.98-.182,1.961-.364,2.941-.545l.131-.117Z"/><path d="m131.448,171.226c.039.104.078.207.117.311.086-.147.173-.294.259-.441-.103.025-.206.049-.302.077.007.003-.074.053-.074.053Z"/><path d="m165.179,170.755c.046-.004.091-.008.137-.013l-.137.013Z"/><path d="m163.919,169.175c-.088.025-.175.05-.263.075.113-.02.225-.04.34-.038.002.023-.077-.038-.077-.038Z"/><path d="m131.531,173.203c-.023-.656-.046-1.312-.076-1.973-.007-.005.074-.055.067-.058-.004.685,0,1.373.002,2.062-.001,0,.007-.031.007-.031Z"/><path d="m168.027,172.326c-.084-.049-.168-.098-.252-.147.069.086.139.172.195.277-.013.018.057-.129.057-.129Z"/><path d="m118.991,173.86c.026-.068.051-.136.077-.204-.068.032-.136.065-.204.098.078.005.156.011.246.003.012-.014-.119.103-.119.103Z"/><path d="m130.214,174.507c.439-.433.877-.865,1.316-1.301,0-.003-.008.029-.007.028-.426.419-.853.839-1.281,1.26,0,.001-.028.012-.028.012Z"/><polygon points="167.904 169.464 167.624 169.375 167.806 169.602 167.904 169.464"/><path d="m168.71,174.082c-.233-.575-.465-1.15-.69-1.74.007-.015-.063.132-.05.114.228.57.442,1.159.651,1.758-.006.011.09-.132.09-.132Z"/><path d="m127.813,150.344c-.245-.757-.491-1.514-.739-2.277-.003-.006.028.013.025.006.163.736.329,1.479.494,2.223,0,0,.219.049.219.049Z"/><path d="m164.488,173.772c.164.008.328.015.493.023-.205-.056-.409-.112-.614-.168l.121.145Z"/><path d="m127.594,150.295l.321-.2c-.039.08-.079.16-.11.245.008.005-.211-.044-.211-.044Z"/><path d="m167.884,175.427l-.25-.03s.187.147.181.157c-.006.01.07-.128.07-.128Z"/><path d="m168.607,177.328c-.243-.627-.487-1.254-.726-1.891.003-.011-.072.127-.066.117.28.611.555,1.232.828,1.872,0,.018-.036-.098-.036-.098Z"/><path d="m171.15,148.165l-.191-.213s.264.2.276.206c.013.006-.085.007-.085.007Z"/><path d="m165.316,170.742c-.463-.515-.926-1.029-1.393-1.556-.004-.012.075.049.073.026.385.502.772,1.027,1.171,1.547.012-.005.149-.017.149-.017Z"/><path d="m167.806,169.602c.245.653.491,1.306.74,1.968.004.008-.033-.019-.029-.007-.204-.685-.413-1.382-.617-2.089.004-.01-.094.128-.094.128Z"/><path d="m176.754,182.873c.254.105.509.211.763.316-.221-.139-.442-.278-.662-.417,0,0-.1.101-.1.101Z"/><path d="m164.366,173.626c.093.036.186.071.279.107-.041.017-.083.035-.141.045-.017-.007-.138-.152-.138-.152Z"/><path d="m174.487,168.245l.265-.322s-.165.2-.175.227c-.01.027-.09.094-.09.094Z" fill="#fff"/><path d="m172.766,179.874c-.683-1.039-1.365-2.078-2.048-3.117.71.003,1.42.005,2.129.008.682,1.045,1.364,2.089,2.046,3.134-.709-.008-1.419-.016-2.128-.024Z" fill="#fff"/><g><path d="m161.261,142.65c-.008.878.246,2.412-.063,2.535-3.532,1.41-7.15,2.606-9.785,3.525-1.204,2.94-1.623,5.87-3.313,7.368-.993.88-3.996-.575-6.11-.872-2.23-.313-4.475-.653-6.719-.704-4.095-.092-5.625-2.288-3.888-6.012,4.359-9.348,11.878-12.419,22.348-10.411,2.283-9.952,4.519-19.701,6.982-30.441-1.859,1.647-3.093,2.741-4.321,3.829-4.947-5.516-4.83-6.193,2.188-10.257.689,1.401,1.363,2.772,2.334,4.747.961-2.651,1.776-4.9,2.591-7.149.628.207,1.255.414,1.883.621-2.054,6.558-4.107,13.116-6.14,19.705-.006,1.376-.032,2.721-.059,4.066-.566.721-1.132,1.443-1.682,2.188.034.156.061.288.067.421.004.091-.023.183-.037.275-.016-.275-.032-.551-.048-.826.522-.729,1.044-1.457,1.554-2.196.033-1.348.078-2.684.123-4.021,1.178-2.027,2.694-3.932,3.476-6.101,4.048-11.217,7.908-22.501,11.824-33.733,4.214,1.242,4.262,1.259,2.932,4.969-5.437,15.161-10.971,30.287-16.271,45.496-.6,1.721.058,3.879.133,5.834,0,0,.017-.016.017-.016-4,2.86-4.025,4.749-.082,7.044.01.01.068.117.068.117Z"/><path d="m169.656,134.678c8.652-9.613,17.301-19.228,25.959-28.836,1.892-2.099,3.719-4.273,5.778-6.197.743-.695,2.078-.756,3.142-1.107.455.655.909,1.311,1.364,1.966-8.362,7.987-16.688,16.011-25.101,23.944-3.674,3.464-7.525,6.74-11.287,10.109.009.007.145.121.145.121Z"/><path d="m174.697,138.843c6.871-4.516,13.749-9.021,20.609-13.553,3.1-2.048,6.162-4.152,9.658-6.511-.22,4.146-23.617,20.231-32.249,23.012,0,0,.081.114.081.114.004-.402.008-.804.013-1.206l-.078.2c.385-.389.77-.777,1.155-1.166l-.168.159c.385-.389.771-.779,1.156-1.168,0,0-.176.119-.176.119Z"/><path d="m169.487,145.32c-.366-1.349-.731-2.699-1.106-4.083h-5.751s-.099-.057-.099-.057c2.381-2.163,4.762-4.326,7.134-6.495-.008-.007-.144-.12-.153-.127,2.978,4.791,4.968-.396,8.047-.897-1.08,1.956-1.971,3.57-2.861,5.183,0,0,.176-.12.176-.119-.385.389-.771.779-1.156,1.168,0,0,.168-.159.168-.159-.385.389-.77.777-1.155,1.166,0,0,.078-.2.08-.201-.004.402-.009.804-.014,1.206,0,0-.081-.114-.081-.114-1.088,1.202-2.177,2.404-3.265,3.607l.036-.078Z"/><path d="m164.832,126.833c2.9-6.234,5.8-12.467,8.699-18.701.716.378,1.432.756,2.148,1.135-3.63,5.839-5.933,12.407-10.958,17.479,0,0,.111.088.111.088Z"/><path d="m174.142,122.822c0-1.912-.076-3.833.125-5.724.019-.176,1.793-.165,2.752-.24v5.96c-.959.002-1.918.003-2.877.005Z"/><path d="m162.893,130.88c.647-1.349,1.293-2.697,1.939-4.046,0,0-.111-.088-.111-.088-.644,1.348-1.288,2.696-1.934,4.044-.001,0,.106.091.106.091Z"/><path d="m162.06,132.921c.277-.681.554-1.361.832-2.042.001,0-.106-.091-.105-.09-.291.673-.583,1.345-.876,2.017l.148.115Z"/><path d="m161.912,132.806c-.212.894-.424,1.788-.637,2.682,0,0-.016.016-.017.017.264-.862.528-1.725.797-2.586.005.002-.143-.113-.143-.113Z"/><path d="m162.629,141.237c-.453.478-.907.955-1.364,1.423-.004-.01-.062-.117-.072-.127.445-.451.901-.892,1.347-1.343-.01-.01.089.047.089.047Z"/><path d="m157.49,125.366c.566-.721,1.132-1.443,1.686-2.176-.012-.012-.122-.117-.122-.117-.522.729-1.044,1.457-1.566,2.186l.002.107Z" fill="#fff"/><path d="m159.165,119.041c-.045,1.337-.09,2.674-.123,4.021.012.011.121.116.134.127.039-1.334.066-2.679.071-4.055-.021-.03-.082-.094-.082-.094Z" fill="#fff"/><path d="m157.487,125.259c.016.275.032.551.048.826.013-.092.041-.184.037-.275-.005-.133-.033-.265-.067-.421-.015-.024-.018-.131-.018-.131Z" fill="#fff"/><path d="m172.796,141.905c.005-.402.01-.804.014-1.206-.006.402-.01.804-.014,1.206Z" fill="#fff"/><path d="m173.717,139.892c.385-.389.771-.779,1.156-1.168-.385.389-.771.779-1.156,1.168Z" fill="#fff"/><path d="m172.73,140.899c.385-.389.77-.777,1.155-1.166-.385.389-.77.777-1.155,1.166Z" fill="#fff"/></g></g></svg>