<?xml version="1.0" encoding="UTF-8"?><svg id="a" xmlns="http://www.w3.org/2000/svg" viewBox="0 0 308.632 308.632"><rect x="53.198" y="53.199" width="202.237" height="202.235" transform="translate(154.316 -63.92) rotate(45)" fill="#fff" stroke="red" stroke-miterlimit="10" stroke-width="16"/><g><path d="m112.599,227.08v-8.576h89.197v8.576h-89.197Z"/><path d="m181.447,166.018c-4.157,3.359-8.556,6.914-14.093,11.388.837-14.657.345-28.046-11.278-37.077-2.172,8.142-4.73,16.254-6.369,24.547-.743,3.758.339,7.876-.372,12.908-4.19-3.602-8.381-7.205-12.2-10.488-1.522,4.908-4.927,5.159,6.876,22.933-6.501-1.88-11.705-3.386-16.925-4.895,3.695,9.74,8.943,18.414,20.04,22.22-13.788,3.1-32.363-6.448-38.078-20.741-4.291-10.732-6.734-22.202-9.329-33.791,6.793,4.76,10.595,14.011,21.915,11.774-9.175-12.321-6.877-26.691-7.506-41.032,4.401,5.317,8.803,10.634,13.204,15.952.495-.185.991-.37,1.486-.555-5.516-11.853,1.868-23.379-.023-35.628,3.966-.134,6.822,1.554,8.129,5.028,1.393,3.703,1.952,7.712,3.187,11.485.861,2.629,2.247,5.086,3.815,8.534,5.256-9.598,6.157-19.063,6.713-28.668.465-8.035,1.306-16.048,2.032-24.688,1.694.858,2.168.972,2.18,1.122.936,11.532,8.72,20.335,12.277,30.826,2.617,7.719,5.873,15.28,3.266,23.795,7.305-.909,8.544-3.612,11.733-24.471,6.996,6.767,8.571,21.071,4.067,38.157,7.131-2.447,10.731-8.073,13.944-14.875,6.875,14.496,4.033,26.87-5.231,38.439.401.409.803.819,1.204,1.228,4.488-2.19,8.977-4.38,12.978-6.333.448,30.998-17.34,47.097-39.602,45.616,3.78-3.381,7.76-6.345,10.973-9.987,3.14-3.558,5.496-7.808,8.748-12.561-5.773,1.615-10.432,2.919-15.092,4.222,8.035-13.679,9.481-18.439,7.33-24.381Z"/></g></svg>