<?xml version="1.0" encoding="UTF-8"?><svg id="a" xmlns="http://www.w3.org/2000/svg" viewBox="0 0 308.632 308.632"><rect x="53.198" y="53.199" width="202.237" height="202.235" transform="translate(154.316 -63.92) rotate(45)" fill="#fff" stroke="red" stroke-miterlimit="10" stroke-width="16"/><path d="m89.996,163.906c.338-7.317,2.589-10.259,9.655-12.15,30.222-8.089,60.462-16.114,90.655-24.307,4.419-1.199,7.999-.423,10.715,3.068,2.396,3.08,5.21,3.069,8.478,2.153,5.608-1.571,11.25-3.021,16.852-4.614,3.583-1.019,5.985.268,6.943,3.706.999,3.586-.855,5.661-4.287,6.583-5.625,1.511-11.207,3.198-16.867,4.558-3.432.824-5.647,2.333-6.162,6.12-.642,4.721-3.801,6.894-8.309,8.081-29.615,7.794-59.185,15.756-88.769,23.668-9.129,2.442-13.51.307-16.968-8.661-1.001-2.598-1.311-5.463-1.937-8.205Z"/></svg>