<?xml version="1.0" encoding="UTF-8"?><svg id="a" xmlns="http://www.w3.org/2000/svg" viewBox="0 0 308.632 308.632"><rect x="53.198" y="53.199" width="202.237" height="202.235" transform="translate(154.316 -63.92) rotate(45)" fill="#fff" stroke="red" stroke-miterlimit="10" stroke-width="16"/><g><path d="m111.165,152.412c7.325-2.736,13.519-5.103,19.752-7.363,5.891-2.136,8.141-9.86,4.463-15.174-8.542-12.345-12.438-26.121-11.547-41.036,1.084-18.137,15.943-32.13,33.339-30.706,14.143,1.157,22.283,10.857,27.507,23.131,1.398,3.284,2.339,7.137,2.148,10.657-.775,14.328-4.186,27.949-12.757,39.834-4.138,5.738-2.224,11.757,4.458,13.928,6.628,2.153,13.242,4.348,20.396,6.699-2.697,3.128-3.596,7.557-8.826,6.771-.503-.076-1.431.503-1.644,1-3.455,8.029-9.451,3.428-14.942,3.193.301,2.46,1.15,5.991-3.713,3.885-.248-.107-.644.065-.95.168q-6.066,2.033-7.136-4.275c-.493-2.867-2.38-6.434-1.309-8.444,2.637-4.949.498-8.872-.664-13.318-1.39-5.316-2.102-10.808-3.108-16.224-.653.08-1.305.16-1.958.241,0,1.892.312,3.85-.071,5.662-.626,2.963-1.865,5.794-2.521,8.753-.298,1.345-.364,3.64.395,4.169,3.833,2.671,1.159,5.796.831,8.607-.292,2.499-1.354,4.918-2.155,7.345-1.02,3.091-2.12,6.155-3.575,10.357-4.122-4.864-7.687-7.041-12.408-3.907-.415.276-1.394.092-1.901-.22-7.04-4.325-14.043-8.709-22.104-13.733Z"/><path d="m180.212,194.333c.374-.797.952-2.026,1.458-3.105-1.373-2.795-10.221,2.958-5.203-5.878-2.005-.141-3.469-.244-4.923-.346.171-6.219,7.139-14.667,12.921-16.07,1.232-.299,2.528-.88,3.477-1.699,3.108-2.683,5.736-6.064,9.152-8.219,8.392-5.293,20.812-3.303,27.216,4.646,2.152,2.671,2.657,6.845,3.399,10.438,1.64,7.934-1.214,13.963-7.834,18.76-4.554,3.299-8.417,7.545-12.635,11.317-2.274,2.034-3.444,3.159-7.088.175-5.469-4.478-12.845-6.627-19.942-10.02Z"/><path d="m139.863,187.878c-1.751-.32-2.934-.536-3.887-.71-.855,2.567-1.68,5.044-2.504,7.521-1.17-1.347-2.341-2.695-4.059-4.673-.606,1.7-.702,3.718-1.746,4.564-2.942,2.383-6.24,4.339-9.466,6.355-2.249,1.406-4.488,3.024-6.965,3.793-1.491.463-3.995.072-5.075-.954-6.259-5.95-12.306-12.132-18.232-18.417-1.111-1.178-1.353-3.177-1.982-4.803-.056-.145-.004-.33-.01-.496-.786-21.399,1.842-18.494,18.535-24.885,5.261-2.014,11,2.402,14.957,7.04.303.355.222,1.124.557,1.353,4.253,2.9,8.399,6.008,12.888,8.494,3.089,1.71,6.529,6.994,6.241,10.787-.104,1.378.393,2.801.748,5.033Z"/><path d="m201.359,209.624c-15.03,13.839-29.552,27.212-44.499,40.974,0-7.091-.988-13.337.309-19.067,1.057-4.671.882-8.327-1.013-12.539-1.446-3.213,1.668-6.652,5.607-6.095-.517-2.981-.889-5.817-1.514-8.596-1.498-6.659.93-8.341,7.68-8.945,5.274-.472,8.251,1.157,11.185,4.754.48.588,1.801.553,2.75.682,2.575.351,5.474-.001,7.67,1.086,3.83,1.896,7.229,4.662,11.824,7.745Z"/><path d="m152.092,250.135c-6.666-6.597-13.062-12.852-19.372-19.193-6.094-6.125-12.089-12.349-18.148-18.51-4.121-4.191-3.811-5.007,1.683-6.908,5.014-1.735,9.819-4.067,14.789-5.941,2.214-.835,5.65-.424,6.737-1.899,4.143-5.629,8.965-2.416,14.503-1.789-.387,6.596-1.088,13.267-1.03,19.933.027,3.05,1.853,6.042,2.317,9.142.603,4.033,1.079,8.172.839,12.219-.246,4.13-1.426,8.203-2.318,12.946Z"/><path d="m166.049,191.412c.968-1.735,1.885-3.504,3.001-5.137.088-.129,1.553.682,2.378,1.057l-3.096,5.359c-.761-.426-1.522-.852-2.283-1.278Z"/><path d="m162.796,171.265c1.787.889,3.574,1.777,5.361,2.666-.491.867-.982,1.734-1.472,2.6-1.681-1.077-3.363-2.155-5.044-3.232.385-.678.77-1.356,1.156-2.034Z"/><path d="m156.604,203.615c.453,1.86.906,3.72,1.359,5.581-1.032.166-2.064.332-3.096.498-.217-1.905-.434-3.809-.651-5.714l2.387-.364Z"/><path d="m139.644,174.798c1.799.88,3.607,1.746,5.351,2.725.045.025-.818,1.929-.911,1.899-1.875-.615-3.699-1.384-5.534-2.123l1.094-2.502Z"/><path d="m154.135,163.401c.295-1.999.575-4.001.977-5.979.01-.049,2.009.219,2.006.268-.134,2.024-.392,4.039-.634,6.055-.783-.115-1.566-.23-2.349-.345Z"/><path d="m151.406,194.47c-.666-1.525-1.466-2.476-1.301-3.211.188-.834,1.238-1.475,1.914-2.199.601.623,1.615,1.204,1.685,1.883.068.649-.845,1.4-2.298,3.528Z"/><path d="m141.736,169.8c-1.099.813-2.087,1.932-2.475,1.753-.857-.396-1.412-1.447-2.09-2.23.753-.527,1.513-1.471,2.256-1.457.676.012,1.334,1.064,2.31,1.935Z"/><path d="m139.776,193.006c-.707-1.048-1.501-1.715-1.422-2.252.078-.53.988-1.103,1.641-1.302.257-.078,1.187.849,1.139,1.238-.08.658-.692,1.251-1.358,2.316Z"/><path d="m154.855,167.382c-.728.564-1.217,1.234-1.677,1.215-.428-.018-1.152-.773-1.147-1.197.006-.441.706-1.19,1.143-1.22.45-.031.949.642,1.681,1.202Z"/></g></svg>