<?xml version="1.0" encoding="UTF-8"?><svg id="a" xmlns="http://www.w3.org/2000/svg" viewBox="0 0 308.632 308.632"><rect x="53.198" y="53.199" width="202.237" height="202.235" transform="translate(154.316 -63.92) rotate(45)" fill="#fff" stroke="red" stroke-miterlimit="10" stroke-width="16"/><path d="m101.63,125.942c3.074,1.956,7.031,4.473,11.243,7.154-.477-10.414-.92-20.093-1.372-29.944,4.233,4.614,8.332,9.081,12.43,13.547.657-.301,1.313-.602,1.97-.903-3.574-10.96-.8-21.262,3.472-31.677,3.492,5.823,7.219,12.036,11.197,18.668,8.173-13.955,4.246-29.573,9.669-43.434,2.911,14.859,13.308,27.752,10.257,44.107,7.06-1.348,7.313-1.73,11.589-16.888,2.452,5.41,5.461,10.002,6.544,15.01,1.082,5.008.238,10.433.238,16.857,3.464-3.04,6.454-5.663,9.514-8.347,6.142,8.026-.97,16.453-.976,26.177,3.855-2.531,7.021-4.61,10.258-6.735,7.109,18.442,6.077,36.131-5.098,52.983-2.168,3.27-3.643,7.021-5.265,10.628-4.25,9.449-10.677,16.795-20.138,21.295-.971.462-1.935.942-2.727,2.311h28.014v12.066h-79.955v-11.894h23.96c-5.209-4.197-11.342-7.645-15.329-12.764-4.132-5.305-6.128-12.257-9.173-18.433-1.444-2.928-3.617-5.568-4.648-8.613-2.174-6.422-4.864-12.936-5.433-19.575-.902-10.532-.241-21.197-.241-31.596Zm76.912,53.381c.3-15.475-11.891-28.334-27.232-28.721-15.307-.387-28.486,11.995-28.918,27.169-.442,15.514,12.165,28.75,27.617,28.994,15.476.244,28.234-12.026,28.533-27.442Zm-19.632-39.705c-3.883-8.704-2.013-19.267-10.218-24.804-2.011,5.229-4.186,10.285-5.87,15.5-.948,2.933-1.087,6.128-1.606,9.304h17.695Zm-32.688,5.571c.564.262,1.129.524,1.693.785,2.859-1.472,5.718-2.945,8.183-4.215-1.941-5.778-3.72-11.075-5.897-17.556-1.484,7.829-2.732,14.408-3.979,20.986Zm45.362-15.822c-.429-.03-.858-.059-1.288-.089-2.422,3.835-4.844,7.671-7.338,11.621,4.1,2.088,7.668,3.905,11.845,6.032-1.155-6.3-2.187-11.932-3.219-17.564Zm17.146,17.209c-3.055,2.374-5.533,4.3-7.985,6.206,2.662,4.446,4.924,8.225,7.985,13.34v-19.545Zm-65.534,3.423c-3.606-2.479-6.817-4.686-10.797-7.422,1.253,5.899,2.321,10.93,3.506,16.509,2.745-3.422,5.092-6.348,7.29-9.088Z"/></svg>