<?xml version="1.0" encoding="UTF-8"?><svg id="a" xmlns="http://www.w3.org/2000/svg" viewBox="0 0 308.632 308.632"><rect x="53.198" y="53.199" width="202.237" height="202.235" transform="translate(154.316 -63.92) rotate(45)" fill="#fff" stroke="red" stroke-miterlimit="10" stroke-width="16"/><g><path d="m184.894,149.246c7.1-1.126,12.322-4.936,16.503-10.738,1.651-2.291,4.205-4.312,6.79-5.467,5.034-2.25,8.556-.258,10.396,4.981,1.544,4.395,4.213,8.651,4.622,13.13.693,7.593-3.962,10.535-10.741,7.032-5.049-2.608-9.156-2.307-13.997.471-7.172,4.115-14.757,7.509-23.741,11.997,9.346,4.317,17.274,8.241,25.45,11.551,1.781.721,4.458-1.168,6.709-1.126,4.503.085,9.44-.368,13.385,1.311,5.279,2.248,5.101,8.743-.1,11.359-4.123,2.074-5.896,4.803-7.193,9.142-.699,2.337-4.604,4.753-7.372,5.194-4.302.686-8.164-2.277-9.039-6.361-1.484-6.929-6.146-9.727-11.948-12.078-4.768-1.932-9.226-4.629-13.989-6.578-1.526-.624-3.587.053-5.402.153-.148.008-.298.145-.43.244-9.425,7.081-18.944,6.541-28.799.753-1.599-.939-4.396-.948-6.189-.242-5.721,2.25-11.239,5.019-16.818,7.626-3.818,1.784-6.368,4.392-7.183,8.873-.842,4.628-5.464,8.093-9.706,7.811-4.868-.325-7.145-3.24-8.245-7.915-.47-1.997-2.503-3.897-4.275-5.255-2.77-2.123-6.48-3.581-5.629-7.922.842-4.296,4.254-6.353,8.271-6.782,2.91-.31,6.186-.338,8.827.704,4.308,1.7,7.97,1.275,11.906-.791,4.712-2.474,9.648-4.519,14.398-6.925,3.812-1.93,3.942-3.434.386-5.331-7.338-3.913-14.656-7.93-22.291-11.182-2.304-.981-5.783-.052-8.439.845-3.672,1.24-7.152,3.347-10.625-.019-2.81-2.723-3.033-9.237-.817-13.128,1.453-2.55,2.818-5.165,4.009-7.845,1.829-4.115,5.307-5.566,8.972-3.992,3.315,1.424,6.562,3.949,8.759,6.816,3.395,4.429,7.444,7.311,11.782,8.606-.122-4.904-.156-9.889-.418-14.862-.091-1.727-.532-3.515-1.205-5.11-.703-1.665-1.882-3.129-2.847-4.684-5.206-8.394-4.83-14.254,2.386-20.796,7.218-6.544,14.26-13.842,22.69-18.367,14.897-7.995,29.35-4.925,41.962,6.318,4.099,3.654,8.143,7.371,12.2,11.073,8.02,7.316,9.135,12.752,3.289,21.854-3.031,4.72-4.499,9.103-3.84,14.802.406,3.509-1.447,7.28-2.282,10.935-.041-.027-.086-.057-.13-.086Zm-73.864-31.466c1.922-3.495,3.687-7.14,5.911-10.479.659-.99,2.61-1.119,3.969-1.642-.262,1.407-.051,3.243-.87,4.144-3.118,3.433-3.411,7.267-2.979,11.624.497,5.02.799,10.139.387,15.149-.485,5.908.659,10.452,6.419,13.224,2.979,1.434,6.072,3.025,8.415,5.273,2.197,2.108,3.491,5.163,5.147,7.824,1.139,1.829,1.774,4.426,3.402,5.417,6.155,3.744,12.685,3.637,18.956.099,1.284-.724,2.911-2.504,2.834-3.697-.397-6.134,3.268-8.955,8.035-11.316,2.52-1.248,4.776-3.021,7.2-4.475,4.155-2.491,5.789-6.041,5.355-10.9-.408-4.561-.97-9.278-.246-13.727.954-5.86,1.854-11.269-4.039-15.466,1.395-1.157,2.348-1.948,4.14-3.434,2.206,4.297,4.144,8.074,6.091,11.867,1.683-3.308,1.967-6.53-1.389-9.496-5.227-4.619-10.394-9.306-15.544-14.01-12.039-10.998-25.823-11.707-39.26-4.34-7.653,4.196-13.558,11.588-20.226,17.568-3.67,3.291-3.86,7.067-1.708,10.794Zm18.894,40.213c-3.159,10.919-.692,16.866,7.462,21.859,9.688,5.932,17.457,5.669,26.238-.888,7.967-5.949,9.851-11.05,6.937-21.739-1.496,2.933-2.389,4.732-3.326,6.507-1.312,2.488-2.088,5.641-4.091,7.316-7.187,6.009-18.163,6.076-25.864.13-2.046-1.58-2.842-4.786-4.191-7.257-1.073-1.966-2.112-3.951-3.166-5.927Zm87.696,32.334c2.896-1.673,2.605-3.995-.292-4.742-3.177-.819-6.958-.957-10.062-.02-5.003,1.509-9.407,1.084-13.924-1.191-5.037-2.537-10.089-5.068-15.273-7.278-1.642-.7-3.729-.358-5.612-.493,1.191,1.343,2.144,3.078,3.611,3.965,9.435,5.707,22.421,6.937,25.396,20.766.254,1.18,3.172,2.519,4.776,2.428,1.124-.064,2.536-2.286,3.078-3.809.995-2.797,1.331-5.821,2.167-8.684.392-1.342,1.312-2.531,1.992-3.789,1.21.832,2.419,1.663,4.142,2.848Zm-89.091-10.824c.102-.626.204-1.252.306-1.878-1.68-.203-3.631-1.061-4.991-.495-5.524,2.297-10.91,4.943-16.261,7.631-4.111,2.065-8.056,2.092-12.529.882-3.323-.899-7.325-1.004-10.57.002-3.298,1.022-3.015,3.47.259,4.785,1.356-1.112,2.507-2.055,3.658-2.998.777,1.364,1.82,2.646,2.266,4.11.626,2.053.8,4.243,1.182,6.372.507,2.824.993,6.512,4.563,5.889,2.078-.363,4.469-3.273,5.294-5.553,1.633-4.515,3.996-7.89,8.409-9.918,6.185-2.842,12.28-5.878,18.414-8.832Zm90.484-28.961c-.46.11-.92.219-1.38.329-.954-1.353-2.323-2.587-2.752-4.09-.483-1.691.021-3.638-.15-5.45-.462-4.886-3.025-6.082-7.024-3.244-1.194.847-2.356,1.954-3.088,3.203-3.389,5.778-8.828,8.828-14.651,11.442-3.485,1.564-6.897,3.301-10.435,4.731-3.28,1.326-4.111,3.446-2.66,7.168,5.397-2.742,10.701-5.385,15.957-8.12,6.87-3.575,13.54-7.173,21.495-2.258,3.347,2.067,5.385.376,4.688-3.71Zm-95.808,13.138c1.576-3.64.624-5.788-2.568-7.088-2.004-.816-3.998-1.664-5.954-2.589-6.301-2.982-12.938-5.472-16.838-11.897-1.878-3.095-4.592-6.46-8.176-4.936-1.702.724-1.89,5.34-2.472,8.252-.424,2.121.76,4.989-3.176,4.913-.422-.008-1.381,1.786-1.184,2.492.238.855,1.403,1.962,2.235,2.023,1.23.089,2.646-.428,3.761-1.071,5.155-2.975,10.068-2.445,15.174.295,6.259,3.358,12.7,6.375,19.199,9.607Z"/><path d="m111.03,117.78c-2.152-3.726-1.962-7.503,1.708-10.794,6.668-5.98,12.573-13.373,20.226-17.568,13.437-7.367,27.221-6.657,39.26,4.34,5.15,4.704,10.317,9.392,15.544,14.01,3.356,2.966,3.073,6.188,1.389,9.496-1.947-3.793-3.886-7.57-6.091-11.867-1.792,1.487-2.745,2.277-4.14,3.434,5.893,4.197,4.993,9.606,4.039,15.466-.724,4.45-.162,9.167.246,13.727.434,4.859-1.199,8.409-5.355,10.9-2.424,1.454-4.68,3.226-7.2,4.475-4.767,2.361-8.432,5.182-8.035,11.316.077,1.193-1.55,2.973-2.834,3.697-6.271,3.538-12.801,3.646-18.956-.099-1.628-.991-2.263-3.587-3.402-5.417-1.656-2.66-2.951-5.716-5.147-7.824-2.343-2.248-5.436-3.84-8.415-5.273-5.76-2.772-6.904-7.315-6.419-13.224.412-5.01.11-10.129-.387-15.149-.432-4.357-.139-8.191,2.979-11.624.819-.901.608-2.738.87-4.144-1.359.523-3.31.653-3.969,1.642-2.224,3.339-3.989,6.984-5.911,10.479Zm20.698,12.214c-1.654,0-3.309-.04-4.961.008-5.037.146-6.91,2.68-4.224,6.93,1.952,3.089,5.045,6.23,8.343,7.51,4.59,1.781,7.606-2.247,9.909-5.694,1.176-1.761,2.39-4.647,1.701-6.172-.651-1.441-3.716-1.993-5.824-2.508-1.561-.381-3.289-.075-4.943-.073Zm46.422,2.705c-.56-.505-1.692-2.415-2.933-2.488-4.963-.293-9.988-.282-14.926.237-1.258.132-3.188,2.514-3.233,3.913-.136,4.213,6.962,10.475,11.108,10.372,4.769-.119,9.824-5.587,9.984-12.035Zm-26.851,28.69c.024.238.049.476.073.713,2.489-.194,4.978-.389,7.467-.583-.518-2.328-.909-4.694-1.585-6.976-1.025-3.46-1.609-7.857-6.187-8.01-4.549-.152-4.793,4.404-6.025,7.508-.922,2.322-1.433,4.807-2.127,7.22,2.466.079,4.931.163,7.398.23.328.009.658-.065.987-.101Z" fill="#fff"/><path d="m129.923,157.993c1.054,1.976,2.093,3.961,3.166,5.927,1.348,2.471,2.145,5.678,4.191,7.257,7.701,5.946,18.677,5.879,25.864-.13,2.003-1.675,2.779-4.827,4.091-7.316.937-1.776,1.829-3.574,3.326-6.507,2.914,10.689,1.029,15.79-6.937,21.739-8.781,6.557-16.55,6.82-26.238.888-8.154-4.993-10.621-10.94-7.462-21.859Z" fill="#fff"/><path d="m217.619,190.327c-1.723-1.185-2.933-2.016-4.142-2.848-.68,1.258-1.6,2.447-1.992,3.789-.837,2.863-1.173,5.888-2.167,8.684-.542,1.522-1.954,3.745-3.078,3.809-1.604.091-4.522-1.248-4.776-2.428-2.975-13.828-15.962-15.058-25.396-20.766-1.467-.887-2.42-2.622-3.611-3.965,1.883.135,3.97-.207,5.612.493,5.184,2.209,10.236,4.741,15.273,7.278,4.517,2.275,8.921,2.7,13.924,1.191,3.104-.936,6.885-.799,10.062.02,2.896.747,3.188,3.069.292,4.742Z" fill="#fff"/><path d="m128.528,179.503c-6.134,2.953-12.229,5.99-18.414,8.832-4.414,2.028-6.777,5.403-8.409,9.918-.824,2.28-3.216,5.19-5.294,5.553-3.569.623-4.056-3.065-4.563-5.889-.382-2.129-.556-4.319-1.182-6.372-.446-1.464-1.489-2.747-2.266-4.11-1.151.943-2.301,1.886-3.658,2.998-3.274-1.315-3.557-3.763-.259-4.785,3.245-1.006,7.247-.901,10.57-.002,4.473,1.21,8.418,1.183,12.529-.882,5.351-2.688,10.737-5.334,16.261-7.631,1.36-.566,3.312.292,4.991.495-.102.626-.204,1.252-.306,1.878Z" fill="#fff"/><path d="m219.011,150.542c.698,4.086-1.341,5.777-4.688,3.71-7.955-4.914-14.625-1.316-21.495,2.258-5.256,2.735-10.56,5.378-15.957,8.12-1.451-3.723-.62-5.843,2.66-7.168,3.538-1.43,6.951-3.167,10.435-4.731,5.823-2.614,11.263-5.664,14.651-11.442.732-1.249,1.894-2.355,3.088-3.203,3.999-2.838,6.562-1.642,7.024,3.244.171,1.812-.333,3.759.15,5.45.429,1.503,1.798,2.737,2.752,4.09.46-.11.92-.219,1.38-.329Z" fill="#fff"/><path d="m123.203,163.679c-6.499-3.232-12.94-6.249-19.199-9.607-5.107-2.74-10.019-3.27-15.174-.295-1.115.643-2.532,1.16-3.761,1.071-.832-.06-1.997-1.167-2.235-2.023-.197-.706.763-2.501,1.184-2.492,3.937.076,2.752-2.792,3.176-4.913.582-2.911.77-7.528,2.472-8.252,3.584-1.524,6.298,1.842,8.176,4.936,3.9,6.425,10.537,8.915,16.838,11.897,1.955.925,3.95,1.773,5.954,2.589,3.193,1.3,4.145,3.449,2.568,7.088Z" fill="#fff"/><path d="m184.894,149.246c.045.03.089.059.13.086-.003-.002-.13-.086-.13-.086Z" fill="#fff"/><path d="m131.727,129.992c1.654,0,3.382-.306,4.943.075,2.108.515,5.173,1.067,5.824,2.508.689,1.525-.525,4.411-1.701,6.172-2.303,3.447-5.318,7.476-9.909,5.694-3.298-1.28-6.391-4.421-8.343-7.51-2.685-4.25-.812-6.783,4.224-6.93,1.652-.048,3.307-.008,4.961-.009Z"/><path d="m178.149,132.699c-.159,6.448-5.214,11.916-9.984,12.035-4.146.103-11.244-6.159-11.108-10.372.045-1.399,1.975-3.781,3.233-3.913,4.937-.518,9.962-.529,14.926-.237,1.241.073,2.373,1.983,2.933,2.488Z"/><path d="m151.298,161.39c-.329.036-.659.11-.987.101-2.466-.068-4.932-.152-7.398-.23.694-2.413,1.205-4.898,2.127-7.22,1.232-3.104,1.476-7.66,6.025-7.508,4.578.153,5.162,4.55,6.187,8.01.676,2.282,1.066,4.648,1.585,6.976-2.489.194-4.978.389-7.467.583-.024-.238-.049-.476-.073-.713Z"/></g></svg>