<?xml version="1.0" encoding="UTF-8"?><svg id="a" xmlns="http://www.w3.org/2000/svg" viewBox="0 0 125 125"><path d="m31.529,45.25c-2.315,1.77-3.152,3.943-3.091,7.002.228,11.495.137,22.998.059,34.498-.02,2.895.761,4.539,4.032,4.53,20.667-.059,41.333-.029,62-.05.167,0,.333-.313,1.446-.42.185-3.686.499-7.372.529-11.059.076-9.499-.047-19.001.06-28.499.044-3.915-1.418-6.093-5.535-6" fill="none" stroke="#fff" stroke-linecap="round" stroke-linejoin="round" stroke-width="2"/><path d="m95.529,83.25H29.529" fill="none" stroke="#fff" stroke-linecap="round" stroke-linejoin="round" stroke-width="2"/><path d="m54.529,92.25v5.5" fill="none" stroke="#fff" stroke-linecap="round" stroke-linejoin="round" stroke-width="2"/><path d="m57.029,56.25c-5.725,4.536-6.167,7.888-.917,10.321,1.858.861,4.673-.34,6.679-.56,1.397-7.406.781-8.358-5.262-9.761" fill="none" stroke="#fff" stroke-linecap="round" stroke-linejoin="round" stroke-width="2"/><path d="m70.029,39.25h-32.5" fill="none" stroke="#fff" stroke-linecap="round" stroke-linejoin="round" stroke-width="2"/><path d="m77.529,102.25c-.333-.333-.634-.915-1.005-.964-9.548-1.258-19.112-2.687-28.495.964" fill="none" stroke="#fff" stroke-linecap="round" stroke-linejoin="round" stroke-width="2"/><path d="m79.529,59.75v-31.25h-43v46.25" fill="none" stroke="#fff" stroke-linecap="round" stroke-linejoin="round" stroke-width="2"/><path d="m86.029,47.75v-25h-43.5v3" fill="none" stroke="#fff" stroke-linecap="round" stroke-linejoin="round" stroke-width="2"/><path d="m71.029,63.75c1.026.613,2.051,1.226,3.317,1.983-.919,1.646-1.755,3.145-2.691,4.822-1.026-.511-1.827-.91-3.021-1.505-1.035.894-2.198,1.899-3.42,2.955.593,1.271,1.036,2.219,1.647,3.529-1.526.69-2.883,1.303-4.165,1.883-4.501-4.48-5.091-4.445-8.667.334-1.542-.746-3.084-1.492-4.822-2.333.69-1.398,1.251-2.535,1.735-3.517-1.487-2.744-3.671-3.355-6.453-1.893-.798-1.329-1.488-2.477-2.081-3.465,1.441-1.979,2.715-3.729,4.171-5.73-1.604-1.205-2.832-2.127-4.365-3.278.654-1.435,1.335-2.929,2.092-4.589,1.25.583,2.197,1.025,2.406,1.123,1.262-1.263,2.29-2.291,3.318-3.318.33.335.66.67.99,1.005-.561-1.137-1.122-2.274-1.896-3.845,1.901-.758,3.569-1.423,5.163-2.059,2.8,4.578,3.798,4.578,8.403.249,1.235.517,2.554,1.069,4.055,1.697-.41,1.009-.807,1.984-1.378,3.389.858.993,1.863,2.156,2.919,3.378,1.271-.593,2.219-1.036,3.43-1.601.824,1.702,1.57,3.245,2.317,4.787-.329-.135-.657-.27-.986-.404l-2.516,5.904" fill="none" stroke="#fff" stroke-linecap="round" stroke-linejoin="round" stroke-width="2"/></svg>