<?xml version="1.0" encoding="UTF-8"?><svg id="a" xmlns="http://www.w3.org/2000/svg" viewBox="0 0 125 125"><path d="m69.584,50.761c1.705-1.481,3.41-2.962,5.477-4.757,3.755,4.845,7.173,9.256,11.046,14.254-2.006,2.002-5.515,5.502-9.023,9.003" fill="none" stroke="#fff" stroke-linecap="round" stroke-linejoin="round" stroke-width="2"/><path d="m34.084,24.261c2.81,2.341,5.62,4.683,8.45,7.042-2.304,2.093-4.14,3.762-6.501,5.907-1.535-1.535-3.622-3.622-5.722-5.722-2.616,3.579-1.502,7.441.862,10.71,2.96,4.093,7.142,6.127,12.765,4.459,1.092.78,2.37,1.693,3.647,2.605" fill="none" stroke="#fff" stroke-linecap="round" stroke-linejoin="round" stroke-width="2"/><path d="m63.584,62.261c-1.167,3.667-2.333,7.333-3.5,11" fill="none" stroke="#fff" stroke-linecap="round" stroke-linejoin="round" stroke-width="2"/><path d="m77.084,80.761c-2.869,2.991-5.766,5.907-11.75,3.245-1.389,2.268-2.979,4.864-4.728,7.718-7.865-8.278-14.526-15.289-21.721-22.862-3.051,3.966-5.372,6.984-7.478,9.723,6.76,6.76,14.594,14.594,22.615,22.615,2.252-2.426,4.739-5.104,7.327-7.891-.471-.948-.868-1.747-1.265-2.547" fill="none" stroke="#fff" stroke-linecap="round" stroke-linejoin="round" stroke-width="2"/><path d="m81.084,53.261c-1.833,1.5-3.667,3-5.5,4.5" fill="none" stroke="#fff" stroke-linecap="round" stroke-linejoin="round" stroke-width="2"/><path d="m86.584,61.261c1.429,1.581,2.859,3.162,4.748,5.252-3.338,3.339-6.423,6.423-9.822,9.822-3.943-4.567-6.511-9.984-10.602-11.64-4.766-1.93-7.906-5.303-11.824-7.935" fill="none" stroke="#fff" stroke-linecap="round" stroke-linejoin="round" stroke-width="2"/><path d="m56.084,44.261c-1.333-1.834-2.666-3.667-3.999-5.5,1.599-8.507-3.872-15.39-11.997-14.939-1.025.057-2.003.939-3.003,1.439" fill="none" stroke="#fff" stroke-linecap="round" stroke-linejoin="round" stroke-width="2"/><path d="m72.084,64.261c1.414-1.061,2.828-2.121,4.857-3.643-5.346-5.346-10.02-10.761-15.491-15.191-2.909-2.356-6.897.142-10.367.825-3.136.617-3.391,2.92-3.54,5.507-.135,2.345-1.075,4.71-.869,6.994.504,5.588-.633,10.28-5.589,13.508" fill="none" stroke="#fff" stroke-linecap="round" stroke-linejoin="round" stroke-width="2"/><path d="m72.584,47.261c-1.567-1.762-3.134-3.523-5.258-5.912-1.937,1.446-3.589,2.679-5.242,3.912" fill="none" stroke="#fff" stroke-linecap="round" stroke-linejoin="round" stroke-width="2"/><path d="m86.584,73.761c2.667,2.667,5.423,5.251,7.973,8.025,2.175,2.367,2.202,6.385-.008,7.924-2.456,1.71-5.198,1.7-7.445-.47-7.884-7.614-15.686-15.313-23.52-22.98" fill="none" stroke="#fff" stroke-linecap="round" stroke-linejoin="round" stroke-width="2"/></svg>