<?xml version="1.0" encoding="UTF-8"?><svg id="a" xmlns="http://www.w3.org/2000/svg" viewBox="0 0 125 125"><path d="m99.09,36.188h-5.5" fill="none" stroke="#fff" stroke-linecap="round" stroke-linejoin="round" stroke-width="2"/><path d="m41.59,44.688v29.5" fill="none" stroke="#fff" stroke-linecap="round" stroke-linejoin="round" stroke-width="2"/><path d="m41.59,65.188h10.5" fill="none" stroke="#fff" stroke-linecap="round" stroke-linejoin="round" stroke-width="2"/><path d="m59.09,81.688c-1.667,2.5-3.333,5-5,7.5" fill="none" stroke="#fff" stroke-linecap="round" stroke-linejoin="round" stroke-width="2"/><path d="m30.59,64.688h10" fill="none" stroke="#fff" stroke-linecap="round" stroke-linejoin="round" stroke-width="2"/><path d="m77.09,65.188l-6,4.5" fill="none" stroke="#fff" stroke-linecap="round" stroke-linejoin="round" stroke-width="2"/><path d="m99.09,86.188h-5.5" fill="none" stroke="#fff" stroke-linecap="round" stroke-linejoin="round" stroke-width="2"/><path d="m64.59,31.188H30.09v43.75h34.5V31.688" fill="none" stroke="#fff" stroke-linecap="round" stroke-linejoin="round" stroke-width="2"/><path d="m96.59,93.688c3.648-4.046,3.61-8.934,3.558-14.001-.16-15.332-.058-30.666-.058-45.999v-4.069c-2.495-.167-4.497-.301-7.5-.501,0,2.894-.024,5.732.004,8.57.159,16.167.257,32.335.582,48.498.044,2.179,1.272,4.328,1.905,6.504.383,1.319.676,2.664,1.009,3.997" fill="none" stroke="#fff" stroke-linecap="round" stroke-linejoin="round" stroke-width="2"/><path d="m77.09,66.188c.333,6,.743,11.997.954,18.002.064,1.829-.418,3.678-.648,5.498h-24.306" fill="none" stroke="#fff" stroke-linecap="round" stroke-linejoin="round" stroke-width="2"/><path d="m79.59,98.188c1.646.411,3.293.823,5.5,1.374v-54.787c-5.127,4.748-9.806,9.082-14.75,13.661v22.002h-19.58c-8.352,6.739-14.535,11.728-20.717,16.717.324.469.648.937.972,1.406,1.025.209,2.052.609,3.075.597,10.334-.118,20.667-.326,31-.46,4.666-.06,9.333-.01,14-.01" fill="none" stroke="#fff" stroke-linecap="round" stroke-linejoin="round" stroke-width="2"/><path d="m63.59,44.188c-11-.167-22-.333-33-.5" fill="none" stroke="#fff" stroke-linecap="round" stroke-linejoin="round" stroke-width="2"/><path d="m30.59,54.188h33" fill="none" stroke="#fff" stroke-linecap="round" stroke-linejoin="round" stroke-width="2"/><path d="m71.09,57.188c-.333-1.833-.933-3.664-.955-5.501-.102-8.669-.045-17.339-.045-26.249H24.84v54.75c5.576,0,10.915-.078,16.249.046,1.673.039,3.334.621,5.001.954" fill="none" stroke="#fff" stroke-linecap="round" stroke-linejoin="round" stroke-width="2"/><path d="m53.09,44.688v29.5" fill="none" stroke="#fff" stroke-linecap="round" stroke-linejoin="round" stroke-width="2"/></svg>