<?xml version="1.0" encoding="UTF-8"?><svg id="a" xmlns="http://www.w3.org/2000/svg" viewBox="0 0 125 125"><path d="m49.988,80.375c-.333,4.167-.667,8.333-1,12.5" fill="none" stroke="#fff" stroke-linecap="round" stroke-linejoin="round" stroke-width="2"/><path d="m79.988,89.875c-3.333,2.333-6.693,4.63-9.989,7.015-1.727,1.249-3.344,2.652-5.011,3.985" fill="none" stroke="#fff" stroke-linecap="round" stroke-linejoin="round" stroke-width="2"/><path d="m56.488,24.875h-4.5v8" fill="none" stroke="#fff" stroke-linecap="round" stroke-linejoin="round" stroke-width="2"/><path d="m71.988,25.375c.167,2.833.333,5.667.5,8.5" fill="none" stroke="#fff" stroke-linecap="round" stroke-linejoin="round" stroke-width="2"/><path d="m48.488,83.375c-6.969,1.919-9.807,5.183-10,11.5" fill="none" stroke="#fff" stroke-linecap="round" stroke-linejoin="round" stroke-width="2"/><path d="m44.988,57.375c-3.016,9.354.926,20.523,9,25.5,5.418,3.34,16.574-.112,21.163-4.842,6.056-6.243,5.926-13.152,4.837-20.658" fill="none" stroke="#fff" stroke-linecap="round" stroke-linejoin="round" stroke-width="2"/><path d="m74.988,80.375c.333,4,.667,8,1,12" fill="none" stroke="#fff" stroke-linecap="round" stroke-linejoin="round" stroke-width="2"/><path d="m83.488,48.875c.507,4.815-.922,6.793-5.496,8.015-10.346,2.763-20.662,2.763-31.008,0-4.574-1.222-6.003-3.199-5.496-8.015" fill="none" stroke="#fff" stroke-linecap="round" stroke-linejoin="round" stroke-width="2"/><path d="m46.988,50.375c10.333,3.203,20.667,2.983,31,0" fill="none" stroke="#fff" stroke-linecap="round" stroke-linejoin="round" stroke-width="2"/><path d="m67.488,38.875v-15.75h-10c0,4.569.045,9.41-.066,14.249-.012.511-.934,1.001-1.434,1.501" fill="none" stroke="#fff" stroke-linecap="round" stroke-linejoin="round" stroke-width="2"/><path d="m50.988,27.875c-6.115,2.221-9.933,6.275-10.534,12.997-.091,1.022-.607,2.012-.971,3.001-.816,2.214-1.66,4.418-2.535,6.74,1.879.404,2.71.583,3.541.762" fill="none" stroke="#fff" stroke-linecap="round" stroke-linejoin="round" stroke-width="2"/><path d="m84.488,51.375c.83-.179,1.66-.357,3.564-.767-.895-2.175-1.772-4.188-2.548-6.239-.427-1.131-.837-2.307-.991-3.497-.798-6.176-5.228-11.451-11.026-12.997" fill="none" stroke="#fff" stroke-linecap="round" stroke-linejoin="round" stroke-width="2"/><path d="m85.988,94.875c-.065-6.302-2.594-9.363-9.5-11.5" fill="none" stroke="#fff" stroke-linecap="round" stroke-linejoin="round" stroke-width="2"/><path d="m45.488,91.375c4.167,2.333,8.405,4.552,12.444,7.089.884.555,1.056,2.244,1.556,3.411" fill="none" stroke="#fff" stroke-linecap="round" stroke-linejoin="round" stroke-width="2"/></svg>