<?xml version="1.0" encoding="UTF-8"?><svg id="a" xmlns="http://www.w3.org/2000/svg" viewBox="0 0 125 125"><path d="m82.594,67.949c-.692-1.155-1.383-2.31-2.197-3.669-1.523.732-3.14,1.509-4.876,2.343.367,1.171.778,2.48,1.332,4.245-1.03.636-2.165,1.337-3.683,2.274-.227-.075-1.379-.457-2.87-.95-.957,1.416-1.89,2.797-3.007,4.451,1.474,1.029,2.841,1.983,4.908,3.427-1.069,1.799-2.252,3.789-3.937,6.623.22.537.899,2.198,1.646,4.023,1.398-.67,2.542-1.218,4.225-2.024.625,1.092,1.353,2.364,2.378,4.155-.134.469-.513,1.789-.903,3.151,1.447.703,2.926,1.422,4.343,2.111,4.358-4.957,5.408-4.957,8.821.106,1.601-.655,3.262-1.335,5.01-2.05-.364-1.432-.665-2.615-1.117-4.391.787-.467,2.042-1.212,3.735-2.218.395.131,1.549.513,2.783.921.869-1.455,1.748-2.927,2.263-3.789-1.311-2.245-3.004-3.946-3.131-5.756-.095-1.357,1.827-2.855,3.134-4.687-.465-.842-1.261-2.284-2.099-3.801-2.823,1.225-5.273.719-6.782-2.445.356-1.052.695-2.05,1.092-3.221-1.336-.775-2.709-1.572-4.081-2.369.124.333.247.665.371.998-2.285.847-4.571,1.694-6.856,2.541" fill="none" stroke="#fff" stroke-linecap="round" stroke-linejoin="round" stroke-width="2"/><path d="m36.594,69.449c-.397,1.142-.794,2.285-1.262,3.631,2.462,1.296,4.77,2.51,7.422,3.906.86-1.599,1.534-2.854,2.305-4.287h7.204c.706,1.061,1.579,2.373,2.592,3.893,2.307-.98,4.786-2.033,7.414-3.15-.39-1.361-.768-2.681-1.139-3.976,1.819-1.652,3.655-3.321,5.759-5.232q3.531,1.269,6.804-6.52c-1.338-.905-2.716-1.838-4.097-2.768-.002-1.997-.002-3.997-.002-6.148,1.303-1.053,2.68-2.166,4.171-3.372-1.078-2.362-2.131-4.67-3.282-7.191-1.435.37-2.922.754-4.607,1.189-1.595-1.486-3.32-3.094-5.117-4.768.659-1.604,1.196-2.912,1.89-4.601-2.282-1.006-4.664-2.055-7.427-3.273-1.026,1.32-2.113,2.716-3.24,4.165q-6.073,0-9.475-4.104c-2.301.976-4.638,1.967-7.115,3.017.417,1.454.795,2.775,1.166,4.069-1.819,1.652-3.655,3.321-5.693,5.172-.739-.148-2.246-.449-3.808-.761-1.117,2.371-2.199,4.667-3.507,7.441,5.245,1.414,4.828,5.318,4.436,9.283-1.198.763-2.525,1.609-4.08,2.6.942,2.38,1.934,4.884,3.037,7.672,1.701-.57,3.15-1.055,4.963-1.662,1.55,1.743,3.118,3.508,4.687,5.273" fill="none" stroke="#fff" stroke-linecap="round" stroke-linejoin="round" stroke-width="2"/><path d="m84.094,75.949c-3.565.108-5.044,2.039-5.025,5.5.016,2.878,1.411,4.858,4.041,5.425,3.625.782,6.39-.581,7.427-5.066-.572-2.546-1.006-5.896-5.444-5.859" fill="none" stroke="#fff" stroke-linecap="round" stroke-linejoin="round" stroke-width="2"/><path d="m47.094,43.449c-3.464,1.375-6.4,3.292-6.467,7.501-.048,2.984.357,5.781,3.439,7.548,3.029,1.737,6.143,2.215,8.97.363,2.828-1.852,4.642-4.684,4.054-8.411-.596-3.779-2.842-6.087-6.505-6.966-.945-.227-1.992-.034-2.992-.034" fill="none" stroke="#fff" stroke-linecap="round" stroke-linejoin="round" stroke-width="2"/></svg>