<?xml version="1.0" encoding="UTF-8"?><svg id="a" xmlns="http://www.w3.org/2000/svg" viewBox="0 0 125 125"><path d="m97.04,95.597c-2.964.11-6.061-.962-8.606,1.906-.826.931-2.89,1.03-4.395,1.052-15.499.234-30.999.391-46.5.524-2.262.02-4.474-.736-3.851-3.449.313-1.363,2.171-3.367,3.353-3.383,16.164-.224,32.331-.166,48.498-.108.835.003,1.667.624,2.5.957" fill="none" stroke="#fff" stroke-linecap="round" stroke-linejoin="round" stroke-width="2"/><path d="m75.54,45.597c-5.201,5.799-10.402,11.598-15.472,17.25h17.397c-.464-5.613-.944-11.432-1.425-17.25" fill="none" stroke="#fff" stroke-linecap="round" stroke-linejoin="round" stroke-width="2"/><path d="m33.54,42.097h34.766c3.429-3.967,8.611-9.963,13.982-16.177,2.588,4.053,3.34,38.259,1.702,46.938-2.099-1.574-5.641,1.989-6.951-2.261" fill="none" stroke="#fff" stroke-linecap="round" stroke-linejoin="round" stroke-width="2"/><path d="m91.54,42.097c-2,.167-4,.333-6,.5" fill="none" stroke="#fff" stroke-linecap="round" stroke-linejoin="round" stroke-width="2"/><path d="m25.54,76.597c2.071-.621,4.143-1.243,7-2.1v-37.832c-6.253-.846-8.002.439-7.97,5.932.066,11.334.326,22.667.442,34,.015,1.495-.346,2.995-.565,4.751,1.184,3.181,3.645,4.29,7.093,4.28,20.666-.063,41.334.066,61.999-.159,2.503-.027,4.988-1.796,7.001-2.573,0-14.3.041-27.3-.019-40.299-.026-5.495-1.727-6.778-7.981-5.932v38.135c2.796.718,4.898,1.258,7,1.797" fill="none" stroke="#fff" stroke-linecap="round" stroke-linejoin="round" stroke-width="2"/><path d="m65.04,43.597c-6.167,6.333-12.295,12.704-18.517,18.983-2.82,2.846-5.824,5.509-8.805,8.311,3.167,2.022,28.014,2.668,38.822,1.206" fill="none" stroke="#fff" stroke-linecap="round" stroke-linejoin="round" stroke-width="2"/></svg>